<svg width="40" height="40" viewBox="0 0 40 40" fill="none" xmlns="http://www.w3.org/2000/svg">
<path d="M16.7778 29.1667L32.6111 13.3333L29.7222 10.5L16.7778 23.4444L10.3889 17L7.5 19.8889L16.7778 29.1667ZM4.05556 40C2.94444 40 1.98148 39.6111 1.16667 38.8333C0.388889 38.0185 0 37.0556 0 35.9444V4.05556C0 2.94445 0.388889 2 1.16667 1.22222C1.98148 0.407407 2.94444 0 4.05556 0H35.9444C37.0556 0 38 0.407407 38.7778 1.22222C39.5926 2 40 2.94445 40 4.05556V35.9444C40 37.0556 39.5926 38.0185 38.7778 38.8333C38 39.6111 37.0556 40 35.9444 40H4.05556Z" fill="white"/>
</svg>
