<svg width="40" height="40" viewBox="0 0 40 40" fill="none" xmlns="http://www.w3.org/2000/svg">
<path d="M0 37.2727L20 2.72726L40 37.2727H0ZM20.0455 31.8636C20.5303 31.8636 20.9242 31.7121 21.2273 31.4091C21.5606 31.0758 21.7273 30.6667 21.7273 30.1818C21.7273 29.7273 21.5606 29.3485 21.2273 29.0454C20.9242 28.7121 20.5303 28.5454 20.0455 28.5454C19.5909 28.5454 19.197 28.7121 18.8636 29.0454C18.5606 29.3485 18.4091 29.7273 18.4091 30.1818C18.4091 30.6667 18.5606 31.0758 18.8636 31.4091C19.197 31.7121 19.5909 31.8636 20.0455 31.8636ZM18.4091 26.5454H21.7273V17.0909H18.4091V26.5454Z" fill="currentColor"/>
</svg>
