<svg width="40" height="40" viewBox="0 0 40 40" fill="none" xmlns="http://www.w3.org/2000/svg">
<path d="M8.26291 34.1314C6.79186 34.1314 5.53991 33.6307 4.50704 32.6291C3.50548 31.5962 3.0047 30.3443 3.0047 28.8732H0V9.01407C0 8.1377 0.29734 7.40218 0.892019 6.8075C1.518 6.18152 2.26917 5.86853 3.14554 5.86853H28.9671V13.0986H33.7559L40 21.4554V28.8732H36.7136C36.7136 30.3443 36.1972 31.5962 35.1643 32.6291C34.1628 33.6307 32.9264 34.1314 31.4554 34.1314C30.0156 34.1314 28.7793 33.6307 27.7465 32.6291C26.7136 31.5962 26.1972 30.3443 26.1972 28.8732H13.5211C13.5211 30.3443 13.0047 31.5962 11.9718 32.6291C10.939 33.6307 9.70266 34.1314 8.26291 34.1314ZM8.26291 31.5493C9.01408 31.5493 9.64006 31.2989 10.1408 30.7981C10.6729 30.266 10.939 29.6244 10.939 28.8732C10.939 28.1533 10.6729 27.543 10.1408 27.0422C9.64006 26.5102 9.01408 26.2441 8.26291 26.2441C7.51174 26.2441 6.87011 26.5102 6.33803 27.0422C5.83725 27.543 5.58685 28.1533 5.58685 28.8732C5.58685 29.6244 5.83725 30.266 6.33803 30.7981C6.87011 31.2989 7.51174 31.5493 8.26291 31.5493ZM2.58216 26.2911H3.80282C4.2097 25.5399 4.80438 24.9139 5.58685 24.4131C6.40063 23.8811 7.29264 23.615 8.26291 23.615C9.20188 23.615 10.0626 23.8811 10.8451 24.4131C11.6588 24.9139 12.2692 25.5399 12.6761 26.2911H26.338V8.45069H3.14554C3.02034 8.45069 2.89515 8.51329 2.76995 8.63848C2.64476 8.76368 2.58216 8.88887 2.58216 9.01407V26.2911ZM31.4554 31.5493C32.2066 31.5493 32.8326 31.2989 33.3333 30.7981C33.8654 30.266 34.1315 29.6244 34.1315 28.8732C34.1315 28.1533 33.8654 27.543 33.3333 27.0422C32.8326 26.5102 32.2066 26.2441 31.4554 26.2441C30.7042 26.2441 30.0782 26.5102 29.5775 27.0422C29.0767 27.543 28.8263 28.1533 28.8263 28.8732C28.8263 29.6244 29.0767 30.266 29.5775 30.7981C30.0782 31.2989 30.7042 31.5493 31.4554 31.5493ZM28.9671 22.4882H37.5587L32.4413 15.6807H28.9671V22.4882Z" fill="white"/>
</svg>
