<svg width="40" height="40" viewBox="0 0 40 40" fill="none" xmlns="http://www.w3.org/2000/svg">
<path d="M20 30C20.5333 30 20.9833 29.8167 21.35 29.45C21.7167 29.0833 21.9 28.6333 21.9 28.1C21.9 27.5667 21.7167 27.1333 21.35 26.8C20.9833 26.4333 20.5333 26.25 20 26.25C19.4667 26.25 19.0167 26.4333 18.65 26.8C18.2833 27.1333 18.1 27.5667 18.1 28.1C18.1 28.6333 18.2833 29.0833 18.65 29.45C19.0167 29.8167 19.4667 30 20 30ZM18.2 22.1H21.9V9.9H18.2V22.1ZM20 40C17.2333 40 14.6333 39.4833 12.2 38.45C9.76667 37.3833 7.65 35.95 5.85 34.15C4.05 32.35 2.61667 30.2333 1.55 27.8C0.516667 25.3667 0 22.7667 0 20C0 17.2333 0.516667 14.6333 1.55 12.2C2.61667 9.76667 4.05 7.65 5.85 5.85C7.65 4.05 9.76667 2.63333 12.2 1.6C14.6333 0.533333 17.2333 0 20 0C22.7667 0 25.3667 0.533333 27.8 1.6C30.2333 2.63333 32.35 4.05 34.15 5.85C35.95 7.65 37.3667 9.76667 38.4 12.2C39.4667 14.6333 40 17.2333 40 20C40 22.7667 39.4667 25.3667 38.4 27.8C37.3667 30.2333 35.95 32.35 34.15 34.15C32.35 35.95 30.2333 37.3833 27.8 38.45C25.3667 39.4833 22.7667 40 20 40ZM20 36.35C24.5667 36.35 28.4333 34.7667 31.6 31.6C34.7667 28.4 36.35 24.5333 36.35 20C36.35 15.4333 34.7667 11.5667 31.6 8.4C28.4333 5.23333 24.5667 3.65 20 3.65C15.4667 3.65 11.6 5.23333 8.4 8.4C5.23333 11.5667 3.65 15.4333 3.65 20C3.65 24.5333 5.23333 28.4 8.4 31.6C11.6 34.7667 15.4667 36.35 20 36.35Z" fill="white"/>
</svg>
