<svg width="40" height="40" viewBox="0 0 40 40" fill="none" xmlns="http://www.w3.org/2000/svg">
<path d="M18.1546 35.3117V21.0474L5.68582 13.8155V28.0798L18.1546 35.3117ZM21.8454 35.3117L34.3143 28.0798V13.8155L21.8454 21.0474V35.3117ZM18.1546 39.5012L3.89031 31.2718C3.29181 30.9393 2.8263 30.5071 2.4938 29.9751C2.19455 29.4098 2.04492 28.7947 2.04492 28.1297V11.8703C2.04492 11.2053 2.19455 10.6068 2.4938 10.0748C2.8263 9.50956 3.29181 9.06068 3.89031 8.72818L18.1546 0.498754C18.7532 0.166251 19.3683 0 20 0C20.6318 0 21.2469 0.166251 21.8454 0.498754L36.1098 8.72818C36.7083 9.06068 37.1571 9.50956 37.4564 10.0748C37.7889 10.6068 37.9552 11.2053 37.9552 11.8703V28.1297C37.9552 28.7947 37.7889 29.4098 37.4564 29.9751C37.1571 30.5071 36.7083 30.9393 36.1098 31.2718L21.8454 39.5012C21.2469 39.8338 20.6318 40 20 40C19.3683 40 18.7532 39.8338 18.1546 39.5012ZM28.03 13.217L32.3192 10.7731L20 3.6409L15.7108 6.13466L28.03 13.217ZM20 17.9052L24.3392 15.4115L12.02 8.2793L7.68083 10.7731L20 17.9052Z" fill="white"/>
</svg>
