<svg width="39" height="16" viewBox="0 0 39 16" fill="none" xmlns="http://www.w3.org/2000/svg">
<g clip-path="url(#clip0_14368_113635)">
<path d="M4.60169 6.99949C3.04899 6.662 2.35726 6.52993 2.35726 5.93039C2.35726 5.36649 2.82538 5.08559 3.7616 5.08559C4.58498 5.08559 5.18683 5.44615 5.62986 6.15259C5.6633 6.2071 5.73226 6.22597 5.78868 6.19662L7.53574 5.31199C7.59844 5.28054 7.62143 5.20088 7.5859 5.14009C6.86075 3.88023 5.52119 3.19055 3.75743 3.19055C1.43986 3.19055 0 4.33512 0 6.15469C0 8.08746 1.75332 8.5759 3.30812 8.9134C4.86291 9.2509 5.55672 9.38296 5.55672 9.98246C5.55672 10.5821 5.05099 10.865 4.04163 10.865C3.10959 10.865 2.41787 10.4374 1.99992 9.60726C1.96857 9.54647 1.89543 9.52132 1.83483 9.55277L0.0919511 10.4186C0.0313417 10.45 0.00627031 10.5233 0.037612 10.5863C0.729329 11.9802 2.14829 12.7642 4.04373 12.7642C6.45741 12.7642 7.91608 11.6386 7.91608 9.76237C7.91608 7.88622 6.1544 7.34119 4.60169 7.00368V6.99949Z" fill="white"/>
<path d="M13.964 3.19054C12.9734 3.19054 12.0978 3.54271 11.4688 4.1695C11.4291 4.20724 11.3642 4.17999 11.3642 4.12548V0.123681C11.3642 0.0545033 11.3099 0 11.241 0H9.05503C8.98609 0 8.93176 0.0545033 8.93176 0.123681V12.5442C8.93176 12.6134 8.98609 12.6678 9.05503 12.6678H11.241C11.3099 12.6678 11.3642 12.6134 11.3642 12.5442V7.09591C11.3642 6.04358 12.1688 5.23651 13.2534 5.23651C14.338 5.23651 15.1238 6.02681 15.1238 7.09591V12.5442C15.1238 12.6134 15.1781 12.6678 15.247 12.6678H17.433C17.502 12.6678 17.5563 12.6134 17.5563 12.5442V7.09591C17.5563 4.80677 16.06 3.19263 13.964 3.19263V3.19054Z" fill="white"/>
<path d="M21.9907 2.83417C20.8037 2.83417 19.6919 3.19893 18.8936 3.72509C18.8393 3.76072 18.8205 3.8341 18.8539 3.89069L19.8173 5.54047C19.8528 5.59916 19.928 5.62013 19.9865 5.58449C20.5926 5.21764 21.2864 5.02688 21.9949 5.03108C23.9028 5.03108 25.3051 6.38107 25.3051 8.16502C25.3051 9.68482 24.1828 10.8105 22.7597 10.8105C21.5998 10.8105 20.7953 10.1334 20.7953 9.17751C20.7953 8.63039 21.0272 8.18179 21.6312 7.86524C21.6939 7.83171 21.7169 7.75414 21.6793 7.69335L20.7702 6.15049C20.741 6.10018 20.6783 6.07711 20.6218 6.09808C19.4035 6.55088 18.5488 7.64094 18.5488 9.10415C18.5488 11.3178 20.3063 12.9697 22.7576 12.9697C25.6206 12.9697 27.679 10.9804 27.679 8.12728C27.679 5.06881 25.2841 2.83417 21.9907 2.83417Z" fill="white"/>
<path d="M34.0715 3.17379C32.966 3.17379 31.9796 3.58257 31.2586 4.30369C31.2189 4.34352 31.1542 4.31417 31.1542 4.25966V3.39181C31.1542 3.32263 31.0998 3.26812 31.0309 3.26812H28.9013C28.8324 3.26812 28.7781 3.32263 28.7781 3.39181V15.7934C28.7781 15.8626 28.8324 15.9171 28.9013 15.9171H31.0873C31.1562 15.9171 31.2105 15.8626 31.2105 15.7934V11.7267C31.2105 11.6721 31.2754 11.6449 31.3151 11.6805C32.0339 12.3513 32.9848 12.7433 34.0735 12.7433C36.6377 12.7433 38.6376 10.6617 38.6376 7.95751C38.6376 5.2533 36.6356 3.17169 34.0735 3.17169L34.0715 3.17379ZM33.6598 10.6429C32.2011 10.6429 31.0956 9.47941 31.0956 7.94074C31.0956 6.40206 32.1991 5.23863 33.6598 5.23863C35.1205 5.23863 36.2219 6.38319 36.2219 7.94074C36.2219 9.49827 35.1352 10.6429 33.6577 10.6429H33.6598Z" fill="white"/>
</g>
<defs>
<clipPath id="clip0_14368_113635">
<rect width="39" height="16" fill="white"/>
</clipPath>
</defs>
</svg>
