<svg width="67" height="16" viewBox="0 0 67 16" fill="none" xmlns="http://www.w3.org/2000/svg">
<g clip-path="url(#clip0_14377_102632)">
<path fill-rule="evenodd" clip-rule="evenodd" d="M43.6368 0C42.2862 0 41.1914 1.0888 41.1914 2.4319V13.4922C41.1914 14.8353 42.2862 15.9241 43.6368 15.9241H63.5643C64.9149 15.9241 66.0097 14.8353 66.0097 13.4922V2.4319C66.0097 1.0888 64.9149 0 63.5643 0H43.6368ZM47.0783 11.1124V8.30889H48.8517C50.472 8.30889 51.3336 7.40543 51.3336 6.03629C51.3336 4.66715 50.472 3.84752 48.8517 3.84752H45.9357V11.1124H47.0783ZM47.0783 4.92794H48.5895C49.6384 4.92794 50.1535 5.35638 50.1535 6.07355C50.1535 6.79072 49.6571 7.21916 48.6363 7.21916H47.0783V4.92794ZM53.348 11.2614C54.219 11.2614 54.7903 10.8795 55.0526 10.2275C55.1275 10.954 55.5677 11.3266 56.5229 11.0751L56.5323 10.302C56.1483 10.3393 56.0734 10.1996 56.0734 9.79912V7.89907C56.0734 6.7814 55.3335 6.12012 53.9662 6.12012C52.6175 6.12012 51.8401 6.79072 51.8401 7.92701H52.8891C52.8891 7.38681 53.2731 7.06082 53.9474 7.06082C54.6592 7.06082 54.987 7.36819 54.9776 7.89907V8.14124L53.7695 8.27163C52.4115 8.42065 51.6622 8.93292 51.6622 9.82702C51.6622 10.5628 52.1867 11.2614 53.348 11.2614ZM53.5821 10.4231C52.9921 10.4231 52.7579 10.1064 52.7579 9.78976C52.7579 9.36136 53.245 9.16577 54.2002 9.054L54.9495 8.97018C54.9027 9.78976 54.3501 10.4231 53.5821 10.4231ZM60.0014 11.4756C59.5239 12.6305 58.7558 12.9751 57.557 12.9751H57.042V12.0252H57.5945C58.2501 12.0252 58.5685 11.8202 58.915 11.2335L56.7891 6.26914H57.9691L59.4864 9.89229L60.835 6.26914H61.987L60.0014 11.4756Z" fill="white"/>
<path d="M4.63655 6.99949C3.07209 6.662 2.37512 6.52993 2.37512 5.93039C2.37512 5.36649 2.84679 5.08559 3.7901 5.08559C4.61971 5.08559 5.22613 5.44615 5.67251 6.15259C5.7062 6.2071 5.77569 6.22597 5.83254 6.19662L7.59283 5.31199C7.656 5.28054 7.67916 5.20088 7.64337 5.14009C6.91272 3.88023 5.56302 3.19055 3.78589 3.19055C1.45076 3.19055 0 4.33512 0 6.15469C0 8.08746 1.7666 8.5759 3.33318 8.9134C4.89975 9.2509 5.59882 9.38296 5.59882 9.98246C5.59882 10.5821 5.08926 10.865 4.07225 10.865C3.13315 10.865 2.43619 10.4374 2.01507 9.60726C1.98348 9.54647 1.90978 9.52132 1.84873 9.55277L0.0926477 10.4186C0.0315791 10.45 0.00631781 10.5233 0.0378969 10.5863C0.734854 11.9802 2.16457 12.7642 4.07436 12.7642C6.50633 12.7642 7.97605 11.6386 7.97605 9.76237C7.97605 7.88622 6.20102 7.34119 4.63655 7.00368V6.99949Z" fill="white"/>
<path d="M14.0697 3.19054C13.0716 3.19054 12.1894 3.54271 11.5556 4.1695C11.5156 4.20724 11.4503 4.17999 11.4503 4.12548V0.123681C11.4503 0.0545033 11.3955 0 11.3261 0H9.12359C9.05413 0 8.99939 0.0545033 8.99939 0.123681V12.5442C8.99939 12.6134 9.05413 12.6678 9.12359 12.6678H11.3261C11.3955 12.6678 11.4503 12.6134 11.4503 12.5442V7.09591C11.4503 6.04358 12.261 5.23651 13.3538 5.23651C14.4466 5.23651 15.2383 6.02681 15.2383 7.09591V12.5442C15.2383 12.6134 15.293 12.6678 15.3625 12.6678H17.565C17.6345 12.6678 17.6893 12.6134 17.6893 12.5442V7.09591C17.6893 4.80677 16.1816 3.19263 14.0697 3.19263V3.19054Z" fill="white"/>
<path d="M22.1572 2.83417C20.9613 2.83417 19.8411 3.19893 19.0367 3.72509C18.982 3.76072 18.963 3.8341 18.9967 3.89069L19.9674 5.54047C20.0032 5.59916 20.0789 5.62013 20.1379 5.58449C20.7486 5.21764 21.4477 5.02688 22.1615 5.03108C24.0839 5.03108 25.4967 6.38107 25.4967 8.16502C25.4967 9.68482 24.366 10.8105 22.9321 10.8105C21.7635 10.8105 20.9528 10.1334 20.9528 9.17751C20.9528 8.63039 21.1865 8.18179 21.795 7.86524C21.8582 7.83171 21.8814 7.75414 21.8435 7.69335L20.9275 6.15049C20.8981 6.10018 20.8349 6.07711 20.778 6.09808C19.5505 6.55088 18.6893 7.64094 18.6893 9.10415C18.6893 11.3178 20.4601 12.9697 22.93 12.9697C25.8147 12.9697 27.8887 10.9804 27.8887 8.12728C27.8887 5.06881 25.4756 2.83417 22.1572 2.83417Z" fill="white"/>
<path d="M34.3296 3.17379C33.2158 3.17379 32.2219 3.58257 31.4954 4.30369C31.4554 4.34352 31.3902 4.31417 31.3902 4.25966V3.39181C31.3902 3.32263 31.3354 3.26812 31.266 3.26812H29.1203C29.0508 3.26812 28.9961 3.32263 28.9961 3.39181V15.7934C28.9961 15.8626 29.0508 15.9171 29.1203 15.9171H31.3228C31.3922 15.9171 31.447 15.8626 31.447 15.7934V11.7267C31.447 11.6721 31.5123 11.6449 31.5523 11.6805C32.2766 12.3513 33.2347 12.7433 34.3317 12.7433C36.9153 12.7433 38.9303 10.6617 38.9303 7.95751C38.9303 5.2533 36.9131 3.17169 34.3317 3.17169L34.3296 3.17379ZM33.9148 10.6429C32.4451 10.6429 31.3312 9.47941 31.3312 7.94074C31.3312 6.40206 32.443 5.23863 33.9148 5.23863C35.3866 5.23863 36.4963 6.38319 36.4963 7.94074C36.4963 9.49827 35.4014 10.6429 33.9127 10.6429H33.9148Z" fill="white"/>
</g>
<defs>
<clipPath id="clip0_14377_102632">
<rect width="66.5" height="16" fill="white"/>
</clipPath>
</defs>
</svg>
