<svg xmlns="http://www.w3.org/2000/svg" width="988" height="448" fill="none" xmlns:v="https://vecta.io/nano"><style><![CDATA[.B{fill:#4b4b4b}]]></style><mask id="A" maskUnits="userSpaceOnUse" x="0" y="0" width="988" height="448" mask-type="alpha"><path fill="#d9d9d9" d="M0 0h987.746v448H0z"/></mask><g mask="url(#A)" class="B"><path d="M850.864 432.153c46.641-20.691 83.221-49.161 105.792-82.354 20.909-30.749 30.48-58.406 28.454-82.203-1.229-14.431-7.444-26.682-18.467-36.417-11.945-10.546-28.063-17.506-47.898-20.687-18.819-3.018-42.993-1.741-68.19-.036-28.548 1.933-50.331-.946-64.73-8.574-9.595-5.083-17.406-11.382-23.215-18.723-5.371-6.786-9.219-14.702-11.432-23.526-4.616-18.403-2.766-38.277-.806-59.319l.058-.615.564-6.138.151-1.693c2.031-22.675 4.129-46.122 1.657-68.969-4.008-37.053-11.144-80.437-33.655-121.247-13.492-24.456-33.082-45.124-58.23-61.43l.712-.347c13.122 8.51 24.81 18.243 34.742 28.931a165.12 165.12 0 0 1 23.601 32.617c22.535 40.855 29.673 84.261 33.685 121.334 2.474 22.865.375 46.308-1.655 68.981l-.154 1.727-.569 6.205-.051.549c-1.958 21.028-3.804 40.889.801 59.242 4.636 18.466 15.915 32.22 34.471 42.051 14.237 7.544 35.821 10.404 64.166 8.484 25.258-1.712 49.504-2.999 68.504.048 19.993 3.208 36.222 10.215 48.238 20.826 4.153 3.667 7.625 7.686 10.41 12.043 4.645 7.273 7.378 15.483 8.149 24.547 1.049 12.302-1.075 25.872-6.303 40.335-4.815 13.322-12.287 27.471-22.206 42.058-10.417 15.317-23.785 29.679-39.738 42.687-18.703 15.25-41.05 28.687-66.424 39.942l-.432-.329z"/><path d="M843.872 434.954c15.646-7.544 33.318-16.087 47.893-25.659 14.639-9.616 27.383-20.104 37.873-31.174 18.164-19.168 30.546-39.947 37.849-63.528 5.28-17.048 10.366-39.014 2.82-57.74-3.207-7.964-8.437-14.94-15.536-20.737-13.848-11.306-36.115-17.351-64.402-17.482-9.867-.046-20.688.85-31.352 1.837l-1.119.103-1.118.105-2.153.202-1.103.103-1.103.104-1.105.103-1.106.103-1.106.102c-16.593 1.524-33.268 2.745-46.733.501-20.641-3.439-32.712-13.21-40.932-21.329-10.725-10.591-17.675-22.999-20.66-36.88-4.266-19.832-1.972-41.283.454-63.993.917-8.567 1.863-17.415 2.414-26.102 1.749-27.504-.682-56.512-7.229-86.218-10.671-48.421-26.977-103.493-85.612-144.388l.726-.338c26.229 18.291 45.963 40.693 60.339 68.475 13.255 25.616 20.278 52.837 25.401 76.086 6.55 29.727 8.985 58.757 7.234 86.284-.553 8.694-1.499 17.543-2.414 26.1-2.427 22.703-4.717 44.146-.46 63.933 2.976 13.833 9.901 26.198 20.583 36.749 8.179 8.079 20.196 17.78 40.584 21.177 13.707 2.283 30.973.92 47.995-.662l1.094-.102 2.73-.256c12.106-1.137 24.626-2.313 35.973-2.261 28.514.132 50.965 6.227 64.928 17.628 4.607 3.759 8.428 8.012 11.427 12.703 1.646 2.588 3.05 5.309 4.197 8.152 7.58 18.808 2.476 40.823-2.812 57.901-7.316 23.63-19.731 44.463-37.949 63.688-10.528 11.109-23.319 21.636-38.014 31.288-14.652 9.624-32.356 18.178-48.022 25.732l-.474-.309z"/><path d="M836.776 437.64c16.204-7.593 33.126-15.866 47.317-24.921 14.439-9.213 26.998-19.321 37.322-30.045 18.142-18.844 30.069-39.311 36.452-62.569 5.067-18.469 9.171-39.827 1.207-58.211-3.404-7.858-8.877-14.51-16.265-19.773-13.92-9.917-37.666-14.453-66.877-12.763-9.258.536-18.912 1.598-28.253 2.626-22.198 2.442-43.159 4.761-59.973.68-19.59-4.757-29.808-15.349-38.608-25.782-10.059-11.921-16.45-25.2-19.001-39.465-3.466-19.391-1.203-40.151 1.192-62.131 1.001-9.166 2.032-18.642 2.601-27.951 1.681-27.497-1.037-55.677-8.304-86.152-11.584-48.562-28.683-103.831-85.2-145.333l.731-.331c25.456 18.693 44.816 41.374 59.189 69.33 13.049 25.383 20.266 51.608 26.125 76.166 7.275 30.496 9.993 58.698 8.312 86.219-.567 9.264-1.592 18.688-2.584 27.805l-.017.156c-2.394 21.969-4.653 42.718-1.195 62.064 2.545 14.225 8.916 27.464 18.945 39.35 8.766 10.394 18.961 20.925 38.314 25.623 16.537 4.015 37.407 1.731 59.513-.702 9.353-1.03 19.023-2.093 28.335-2.633 14.96-.865 28.511-.117 40.281 2.222 11.252 2.237 20.404 5.826 27.198 10.667 5.318 3.79 9.651 8.291 12.938 13.436 1.321 2.05 2.468 4.207 3.445 6.462 7.996 18.466 3.878 39.869-1.2 58.37-6.399 23.311-18.355 43.834-36.559 62.742-10.367 10.765-22.975 20.916-37.473 30.165-14.26 9.098-31.219 17.388-47.452 24.994l-.456-.316z"/><path d="M829.685 440.326c38.067-17.265 65.407-34.612 83.587-53.021 18.273-18.503 29.963-38.623 35.73-61.51 4.688-18.603 8.301-40.06-.394-58.179-3.73-7.775-9.368-13.86-17.23-18.602-13.923-8.399-38.667-11.284-69.7-8.099l-18.975 2.186-.179.022c-26.545 3.229-51.641 6.302-69.224-.231-18.707-6.949-28.624-19.231-36.459-30.194-9.409-13.157-15.283-27.255-17.459-41.899-2.504-16.844-.599-34.617 1.418-53.433l.022-.209 1.879-19.281c2.816-35.822.102-70.399-8.064-102.774-12.28-48.686-29.962-104.153-84.544-146.428l.744-.326c24.693 19.125 43.661 42.107 57.99 70.249 12.898 25.342 20.436 51.662 26.657 76.332 8.172 32.4 10.889 67.002 8.072 102.849-.501 6.402-1.196 12.894-1.869 19.181l-.034.316c-2.017 18.821-3.918 36.577-1.419 53.373 2.174 14.608 8.032 28.669 17.416 41.795 7.814 10.929 17.712 23.162 36.246 30.045 17.252 6.41 42.206 3.399 68.651.183l19.184-2.212c15.319-1.572 29.193-1.676 41.236-.307 12.263 1.394 22.057 4.255 29.106 8.507 6.295 3.798 11.172 8.444 14.793 14.111a44.01 44.01 0 0 1 2.573 4.629c8.736 18.202 5.105 39.707.41 58.34-5.782 22.944-17.506 43.126-35.844 61.696-18.263 18.494-45.703 35.899-83.878 53.214l-.442-.323z"/><path d="M823.313 442.639c37.655-16.937 64.522-33.585 82.136-50.889 18.287-17.962 29.847-37.682 35.335-60.284 4.478-18.448 7.729-39.724-2.065-57.66-4.044-7.405-10.059-13.038-18.383-17.22-17.26-8.669-48.967-6.803-72.55-3.691l-9.668 1.314-.91.126c-12.047 1.666-24.501 3.386-36.187 4.114-16.854 1.05-30.756-1.136-41.318-6.501-18.219-9.253-27.89-22.659-34.96-34.549-9.034-15.201-14.195-29.528-15.775-43.8-1.785-16.128.018-32.965 1.927-50.791l2.054-21.404c2.579-34.844-.549-69.279-9.296-102.352-13.518-51.098-31.113-104.581-83.592-147.628l.751-.319c23.87 19.58 42.388 42.879 56.614 71.221 12.682 25.268 20.507 51.726 27.073 76.551 8.756 33.096 11.885 67.559 9.305 102.428-.529 7.15-1.304 14.4-2.055 21.412-1.908 17.819-3.707 34.647-1.925 50.741 1.575 14.236 6.726 28.532 15.745 43.706 7.045 11.86 16.701 25.22 34.799 34.412 10.419 5.292 24.139 7.45 40.774 6.414 11.598-.722 24.025-2.438 36.047-4.098l10.605-1.443c23.716-3.13 55.684-5.035 73.206 3.765 7.481 3.759 13.107 8.67 17.125 14.96.493.778.968 1.581 1.418 2.405 9.842 18.022 6.572 39.348 2.087 57.831-5.501 22.664-17.097 42.446-35.455 60.479-17.7 17.385-44.667 34.095-82.424 51.077l-.438-.326z"/><path d="M816.406 445.113c37.029-16.51 63.387-32.446 80.586-48.709 18.554-17.546 30.143-36.836 35.429-58.98 4.369-18.322 7.349-39.396-3.654-56.776-4.445-7.014-10.884-12.127-19.705-15.648-17.462-6.968-49.536-3.506-75.555.316-17.357 2.548-32.899 4.674-47.306 4.828-16.095.173-29.789-3.208-40.711-10.038-17.766-11.108-27.025-25.983-33.742-39.067-8.786-17.111-13.093-31.143-13.969-45.499-.895-14.654.717-29.764 2.424-45.761l.008-.075c.876-8.205 1.781-16.688 2.303-25.046 2.093-33.471-1.523-67.57-10.749-101.35-14.016-51.314-31.925-105.078-82.284-148.974l.759-.311c50.44 43.966 68.349 97.766 82.373 149.109 9.236 33.804 12.854 67.927 10.757 101.426-.523 8.364-1.428 16.848-2.304 25.056l-.008.075c-1.705 15.992-3.315 31.093-2.425 45.722.874 14.318 5.172 28.324 13.944 45.408 6.702 13.056 15.943 27.89 33.614 38.939 10.809 6.758 24.34 10.095 40.204 9.925 14.274-.152 29.771-2.267 47.091-4.81 17.598-2.585 31.084-3.946 42.443-4.284 14.815-.438 25.853.872 33.737 4.018 8.875 3.542 15.359 8.67 19.831 15.674l.094.128c4.895 7.731 7.373 16.668 7.579 27.32.163 8.393-1.076 17.809-3.898 29.637-5.299 22.206-16.929 41.566-35.558 59.184-8.957 8.468-20.735 17.064-35.011 25.546-12.955 7.699-28.385 15.552-45.862 23.346l-.435-.329z"/><path d="M809.803 447.052c36.151-16.099 61.958-31.31 78.897-46.496 18.833-16.885 30.581-35.711 35.905-57.558 4.16-17.074 7.33-38.818-5.104-55.579-4.852-6.535-11.775-11.087-21.161-13.918-17.217-5.193-46.754-.932-72.835 2.853l-5.783.837c-13.515 1.939-31.038 4.051-46.684 3.136-21.608-1.265-33.966-9.022-41.389-14.741-13.997-10.783-24.472-24.453-32.974-43.018-8.084-17.66-11.678-32.009-11.64-46.526.037-13.105 1.875-26.491 3.824-40.664 2.01-14.635 4.084-29.737 3.981-44.432-.198-28.3-7.527-56.811-15.016-83.589-15.049-53.793-32.537-105.771-80.515-150.387l.768-.303c22.084 20.538 39.525 44.523 53.317 73.316 12.607 26.322 20.691 53.648 27.278 77.196 7.494 26.787 14.826 55.312 15.026 83.649.102 14.729-1.975 29.848-3.985 44.468-1.95 14.167-3.787 27.547-3.82 40.631-.038 14.478 3.543 28.798 11.619 46.43 8.486 18.529 18.936 32.162 32.881 42.905 7.369 5.677 19.638 13.359 40.946 14.606 15.488.906 32.918-1.191 46.377-3.123l5.78-.835c26.158-3.795 55.827-8.123 73.396-2.824 9.518 2.872 16.521 7.477 21.418 14.077a43.58 43.58 0 0 1 1.673 2.428l.309.493c10.156 16.401 7.095 36.717 3.163 52.857-5.341 21.915-17.128 40.813-36.05 57.775-17.022 15.26-42.925 30.524-79.169 46.664l-.433-.328z"/><path d="M803.442 449.364c35.933-16.1 60.351-30.162 76.838-44.235 19.164-16.36 31.135-34.682 36.58-56.009 4.32-16.905 7.473-38.34-6.449-54.176-5.277-6.002-12.701-9.964-22.692-12.114-15.687-3.378-39.457.083-62.463 3.449l-19.079 2.66c-18.478 2.303-34.297 2.429-47.016.372-19.667-3.183-31.75-12.014-40.99-20.225-14.495-12.882-25.602-28.551-33.018-46.573-6.988-16.98-9.738-31.769-8.65-46.539.807-10.953 2.824-22.508 4.774-33.682 2.835-16.244 5.76-33.01 5.363-49.243-.641-26.257-8.882-51.272-17.609-77.753l-1.261-3.83-3.192-9.761c-15.74-48.302-32.02-98.245-75.676-141.88l.772-.293c19.53 19.525 35.374 42.269 48.43 69.521 11.563 24.131 19.566 48.687 27.304 72.434l.916 2.804 2.286 6.988 1.25 3.8c8.737 26.504 16.99 51.538 17.63 77.85.397 16.266-2.531 33.041-5.362 49.262-1.953 11.18-3.967 22.741-4.775 33.687-1.087 14.73 1.655 29.486 8.63 46.436 7.401 17.987 18.483 33.622 32.94 46.47 9.192 8.173 21.224 16.943 40.65 20.086 12.578 2.035 28.26 1.91 46.61-.375l19.012-2.65c23.088-3.38 46.973-6.892 62.984-3.446 10.146 2.184 17.67 6.2 23.008 12.273 1.368 1.555 2.569 3.163 3.625 4.815 9.774 15.277 6.801 34.285 2.895 49.58-5.463 21.398-17.476 39.793-36.737 56.235-16.57 14.147-41.077 28.254-77.093 44.391l-.435-.327z"/><path d="M796.672 451.51c24.166-10.952 54.403-25.605 74.819-42.068 19.587-15.796 31.911-33.573 37.658-54.351 4.645-16.787 7.972-37.936-7.51-52.636-5.492-5.217-13.679-8.675-24.325-10.278-13.226-1.992-31.657.363-49.986 3.001l-1.195.172-3.581.52c-10.145 1.475-20.572 2.991-29.821 3.746-18.551 1.515-34.336.066-48.252-4.434-18.621-6.021-30.729-16.111-40.121-25.182-31.263-30.193-43.84-61.238-38.444-94.906 1.412-8.816 3.495-17.974 5.511-26.829 4.045-17.766 8.225-36.138 7.628-53.881-.864-25.65-10.392-49.783-20.481-75.331l-.935-2.369-.84-2.129-9.908-26.255c-15.687-42.456-31.901-86.317-68.33-125.647l.785-.285c36.482 39.383 52.693 83.264 68.374 125.702l.032.085 9.89 26.202.309.783 1.459 3.699c10.101 25.574 19.641 49.719 20.504 75.425.598 17.785-3.587 36.166-7.634 53.944-2.014 8.854-4.097 18.007-5.509 26.812-5.378 33.579 7.166 64.553 38.363 94.686 9.365 9.044 21.435 19.09 39.913 25.066 13.778 4.455 29.406 5.892 47.776 4.391 9.188-.75 19.149-2.197 29.692-3.73l1.802-.262 1.203-.175 1.14-.165c18.61-2.686 37.418-5.154 51.067-3.097 10.81 1.629 19.113 5.137 24.686 10.428 2.253 2.137 4.108 4.408 5.624 6.781 8.978 14.068 5.942 31.695 1.958 46.103-5.77 20.85-18.14 38.704-37.831 54.583-20.519 16.546-50.833 31.232-75.048 42.206l-.442-.323z"/><path d="M790.164 453.569c22.236-10.293 50.395-24.071 71.796-39.633 20.302-14.764 32.748-31.508 39.151-52.7 5.081-16.815 8.693-37.802-8.395-51.011-6.205-4.796-14.929-7.666-25.923-8.529-10.985-.863-24.528.766-37.859 2.52l-.833.11-.832.11-.854.113-.426.057c-16.987 2.25-32.205 4.135-46.446 4.383-21.619.377-36.629-5.195-47.294-10.084-19.022-8.718-32.179-20.404-42.547-30.682-14.701-14.575-24.687-28.608-30.529-42.904-6.857-16.781-8.011-33.71-3.52-51.756 1.704-6.858 3.771-13.912 5.771-20.738l.044-.151c5.57-19.01 11.327-38.664 10.571-57.582-1.026-25.674-12.607-50.601-23.813-74.707l-1.625-3.499C640.82 4.423 635.653-8.171 630.184-21.5l-.035-.085c-15.507-37.8-31.535-76.864-62.172-112.864l.79-.273c30.676 36.044 46.706 75.123 62.211 112.917l16.455 38.478 1.625 3.499c11.215 24.129 22.81 49.065 23.835 74.796.755 18.972-5.01 38.644-10.584 57.665l-5.813 20.878c-8.268 33.23 2.524 63.232 33.977 94.419 10.348 10.258 23.48 21.913 42.412 30.592 10.596 4.858 25.504 10.377 46.843 10.006 14.129-.246 29.311-2.123 46.262-4.368l1.726-.229.864-.114 2.162-.284.866-.112c12.508-1.62 25.062-3.002 35.5-2.181 11.179.877 20.039 3.793 26.338 8.663 3.232 2.5 5.73 5.269 7.623 8.234 8.216 12.859 5.025 29.35.883 43.059-2.906 9.624-6.983 18.161-12.458 26.097-6.702 9.715-15.749 18.751-26.897 26.856-21.488 15.626-49.706 29.43-71.982 39.74l-.451-.32zm-6.307 1.858c23.809-11.292 48.47-23.58 67.831-36.939 21.147-14.593 35.206-31.857 41.779-51.312 5.647-16.716 9.7-37.428-8.946-49.409-6.463-4.15-15.73-6.484-27.558-6.933-10.432-.397-22.525.782-34.574 2.164l-.848.097-.848.098-.847.099-.424.049-.846.1-2.501.293-.544.065-1.025.12-1.026.121-.972.114-.973.113c-15.57 1.81-31.344 3.406-44.396 1.919-20.355-2.319-35.079-9.618-46.806-16.444-16.7-9.721-31.803-21.291-46.172-35.37-18.15-17.783-28.411-33.591-32.277-49.752-3.023-12.639-1.702-26.808 4.037-43.317l5.418-14.919c7.511-20.242 15.272-41.171 14.684-61.433-.745-25.59-13.893-49.945-26.613-73.497l-1.714-3.174c-12.814-23.774-25.655-49.462-38.173-76.35-10.74-23.076-22.914-49.223-41.685-73.621l.8-.263c18.796 24.428 30.973 50.584 41.718 73.669 12.515 26.884 25.355 52.567 38.167 76.337l1.713 3.174c12.73 23.568 25.894 47.939 26.64 73.602.591 20.322-7.182 41.268-14.696 61.522l-5.42 14.922c-5.723 16.464-7.04 30.587-4.026 43.177 3.854 16.107 14.084 31.877 32.203 49.627 14.346 14.058 29.423 25.607 46.086 35.308 11.68 6.797 26.34 14.052 46.485 16.347 12.551 1.43 27.815-.042 42.977-1.791l1.018-.118 1.018-.119 1.017-.119 2.531-.297.857-.101.852-.1 1.278-.15.853-.1.426-.05.851-.098c12.494-1.447 25.115-2.731 36.048-2.317 12.003.455 21.424 2.826 27.997 7.049 4.15 2.665 7.183 5.75 9.335 9.122 7.63 11.966 4.158 27.514-.263 40.602-3.036 8.992-7.674 17.57-13.781 25.497-7.204 9.349-16.698 18.122-28.217 26.071-19.437 13.414-44.146 25.722-67.986 37.029l-.462-.314zm-6.768 2.143c23.269-11.366 45.676-22.584 64.194-34.76 12.052-7.921 21.458-15.722 27.964-23.184 7.059-8.095 12.24-16.65 15.833-26.149 5.791-15.316 11.099-36.928-9.191-47.894-6.727-3.634-16.533-5.522-29.152-5.602-9.166-.058-19.664.992-29.824 2.009l-14.899 1.382c-19.807 1.538-34.363.769-47.186-2.496-23.416-5.963-39.468-16.907-54.998-27.486l-1.249-.851c-16.4-11.167-30.02-22.001-41.639-33.123-18.161-17.386-27.262-32.169-29.498-47.941-1.751-12.377 1.009-26.337 8.44-42.68 2.096-4.611 4.475-9.353 6.778-13.939 3.405-6.781 6.922-13.791 9.684-20.671 5.276-13.136 7.82-26.469 7.559-39.63-.517-25.994-15.482-50.314-29.966-73.832l-1.079-1.75c-17.884-29.062-30.786-51.982-41.835-74.321l-5.758-11.757c-9.93-20.379-20.184-41.423-34.08-61.672l.812-.252c13.901 20.253 24.15 41.283 34.063 61.624l.04.081 5.757 11.755c11.046 22.33 23.944 45.246 41.824 74.301l1.08 1.751c14.497 23.545 29.484 47.876 29.998 73.95.261 13.193-2.288 26.562-7.579 39.734-2.769 6.897-6.289 13.913-9.694 20.696l-.091.182-6.681 13.746c-7.408 16.298-10.16 30.21-8.413 42.534 2.226 15.704 11.295 30.443 29.415 47.79 11.603 11.107 25.207 21.927 41.591 33.081l1.241.846c15.509 10.565 31.547 21.481 54.797 27.403 12.681 3.229 27.102 3.994 46.771 2.467 4.821-.374 9.855-.878 14.723-1.365l.982-.099.983-.098c9.672-.965 19.47-1.889 28.168-1.835 12.785.08 22.748 1.995 29.601 5.699 4.711 2.546 8.259 5.691 10.684 9.49 2.199 3.464 3.479 7.47 3.856 12.061.595 7.261-1.059 15.743-5.2 26.69-3.606 9.539-8.811 18.134-15.91 26.275-6.55 7.512-16.012 15.356-28.12 23.316-18.59 12.222-41.026 23.452-64.32 34.831l-.476-.307zM639.124 253.401c-17.053-15.992-25.221-30.588-25.686-45.941-.361-12.01 3.897-25.647 13.02-41.69 2.081-3.657 4.335-7.404 6.514-11.027 4.44-7.38 9.016-14.989 12.526-22.463 5.929-12.637 8.912-25.601 8.863-38.535-.098-26.391-16.905-50.628-33.167-74.064l-.428-.617c-15.639-22.541-32.045-46.686-45.643-72.247-4.341-8.157-8.568-16.645-12.657-24.857l-.086-.174c-7.814-15.694-15.886-31.907-25.612-47.739l.814-.243c9.739 15.853 17.815 32.074 25.625 47.764l.086.173 12.652 24.852c13.591 25.544 29.992 49.684 45.626 72.22l.428.617c16.275 23.461 33.109 47.714 33.21 74.2.047 12.971-2.944 25.976-8.893 38.654-3.52 7.498-8.1 15.112-12.531 22.475l-.208.347-6.315 10.697c-9.098 15.997-13.339 29.585-12.978 41.539.463 15.277 8.595 29.82 25.6 45.764 14.083 13.202 30.725 25.112 45.151 35.02l1.057.726c17.295 11.884 35.185 24.17 57.407 33.295 10.962 4.502 25.056 9.034 46.449 8.55 7.338-.165 15.109-.722 22.627-1.262 8.149-.585 16.501-1.184 24.309-1.296 13.656-.197 24.399 1.434 31.046 4.73 5.436 2.692 9.126 6.038 11.512 9.777 7.145 11.178 2.589 25.855-2.181 37.066-6.648 15.616-19.731 30.148-38.885 43.193-17.093 11.641-38.622 22.498-59.44 32.998l-7.622 3.849-.491-.298 5.983-3.022 1.641-.828c20.845-10.516 42.318-21.352 59.315-32.926 19.046-12.97 32.057-27.423 38.667-42.956 6.335-14.887 12.228-35.885-9.15-46.483-6.51-3.225-17.08-4.837-30.584-4.643-7.75.111-16.083.709-24.143 1.288-7.556.543-15.369 1.103-22.781 1.271-21.644.487-35.843-4.085-46.882-8.618-22.294-9.156-40.191-21.454-57.5-33.344l-1.066-.733c-14.439-9.916-31.098-21.835-45.199-35.058zm-19.005-6.178c-7.35-6.837-12.615-13.448-16.095-20.211-4.011-7.789-5.575-15.581-4.785-23.822 1.104-11.53 6.935-24.775 17.815-40.493l6.128-8.657c5.578-7.799 11.308-15.811 15.618-23.702 6.621-12.116 10.087-24.719 10.299-37.46.451-26.849-18.037-50.789-35.928-73.938l-1.492-1.931c-16.794-21.722-34.155-44.183-48.03-68.279-7.136-12.392-13.354-24.961-19.936-38.268-5.429-10.975-11.043-22.321-17.193-33.499l.826-.229c6.123 11.129 11.712 22.425 17.119 33.353l.077.156c6.58 13.305 12.797 25.873 19.926 38.256 13.862 24.075 31.221 46.532 48.009 68.249l1.491 1.931c17.908 23.173 36.434 47.131 35.981 74.089-.215 12.782-3.692 25.43-10.336 37.594-4.335 7.937-10.084 15.971-15.643 23.741l-6.128 8.657c-10.85 15.675-16.655 28.869-17.755 40.341-1.445 15.121 5.352 29.458 20.797 43.823 14.295 13.296 32.52 25.395 48.603 36.068l1.267.839c19.949 13.244 38.794 25.753 59.972 37.056 12.684 6.771 27.159 13.335 46.981 15.562 8.006.899 17.379.795 26.81.501l.842-.026 2.947-.1.841-.029 2.097-.075.179-.007 15.608-.416c15.116-.115 25.729 1.248 32.422 4.19 5.584 2.455 9.658 5.684 12.232 9.717 5.371 8.404 4.221 20.296-3.358 35.925-7.097 14.636-22.95 29.913-45.841 44.185-13.977 8.716-30.225 17.198-45.94 25.401l-11.771 6.166-.511-.289 11.082-5.806.689-.36c15.737-8.217 31.953-16.683 45.868-25.36 22.78-14.205 38.546-29.4 45.598-43.942 11.161-23.014 8.274-37.801-8.676-45.252-6.55-2.877-17.009-4.229-31.996-4.114-5.029.038-10.431.231-15.659.418l-.931.033-.847.03-.847.03-.423.015-.849.029-2.121.071-.849.027c-9.45.293-18.859.4-26.961-.51-20.016-2.25-34.553-8.853-47.286-15.65-21.203-11.317-40.051-23.828-60.007-37.073l-1.276-.846c-16.121-10.702-34.341-22.796-48.654-36.109zm-19.986-6.363c-6.534-6.202-11.162-12.733-13.762-19.407-2.847-7.309-3.358-15.044-1.518-22.991 2.582-11.149 9.741-23.581 22.525-39.125l5.314-6.381.178-.213c6.752-8.056 13.717-16.369 18.876-24.598 7.406-11.812 11.239-23.703 11.714-36.352 1.028-27.289-19.775-51.741-38.139-73.312l-6.268-7.34c-16.547-19.343-33.656-39.345-47.143-60.9-10.338-16.525-18.519-33.716-27.18-51.918l-8.948-18.592.83-.218 8.643 17.949.307.646.038.08c8.645 18.167 16.813 35.33 27.127 51.813 13.463 21.524 30.564 41.515 47.101 60.846l6.284 7.358c18.388 21.6 39.235 46.072 38.202 73.48-.475 12.697-4.324 24.637-11.763 36.502-5.173 8.253-12.136 16.562-18.872 24.6l-5.531 6.641c-12.747 15.501-19.878 27.885-22.443 38.973-3.541 15.29 1.427 29.08 15.199 42.158 13.195 12.535 30.639 23.452 47.51 34.01l1.123.702 2.885 1.808 13.191 8.29 1.576.991 49.701 30.908 4.122 2.522.381.234c14.053 8.64 28.586 17.565 49.784 21.659 8.75 1.69 19.37 1.947 30.019 1.981l.77.002.77.001.769.001h.385.766.384.765l1.146-.001 9.737.028c11.102.108 24.962.676 33.614 4.196 6.041 2.457 10 5.69 12.374 9.41l.198.318c6.447 10.581.388 24.955-7.208 36.617-8.634 13.262-21.009 24.95-37.833 35.731-13.811 8.851-29.695 17.492-45.061 25.851l-14.891 8.145-.532-.279 14.19-7.763.641-.349c15.388-8.371 31.278-17.016 45.061-25.848 16.728-10.721 29.039-22.345 37.628-35.537 5.838-8.967 10.76-19.54 9.738-28.704-.78-6.995-5.018-13.169-14.92-17.199-8.471-3.445-22.202-4.019-33.228-4.128l-9.725-.026h-.771l-1.158.001h-.774l-.771-.001c-.257 0-.515 0-.772-.001l-.772-.001c-10.937-.023-21.907-.247-30.997-2.003-21.396-4.133-35.949-13.091-50.029-21.749l-4.501-2.756-49.707-30.912-2.529-1.591-12.238-7.69-2.483-1.554-1.48-.927c-16.905-10.577-34.376-21.508-47.619-34.087zm-19.861-6.24c-11.635-11.785-14.818-26.006-9.211-41.127 3.951-10.651 12.313-22.271 27.102-37.678l4.731-4.892c7.973-8.217 16.184-16.681 22.209-25.123 8.054-11.289 12.362-22.818 13.16-35.241 1.769-27.486-20.558-51.548-40.269-72.775l-9.8-10.46-.371-.394-.056-.06c-16.533-17.572-33.629-35.74-47.019-55.42-14.106-20.735-23.862-43.003-34.188-66.579l-1.093-2.492.834-.209 1.093 2.491.038.087c10.311 23.536 20.052 45.769 34.128 66.451 13.386 19.671 30.489 37.848 47.03 55.427l.289.307 9.896 10.563c11.204 12.066 21.084 23 28.535 34.65l.049.077c8.69 13.614 12.539 26.122 11.759 38.234-.802 12.476-5.129 24.059-13.226 35.407-6.055 8.486-14.279 16.961-22.231 25.156l-4.757 4.919c-14.755 15.366-23.079 26.942-27.007 37.53-5.572 15.021-2.406 29.15 9.153 40.859 12.509 12.669 30.678 23.249 48.253 33.48l5.242 3.056 68.051 41.096 8.006 5.136.464.3c14.33 9.26 29.153 18.833 47.575 25.811 5.168 1.957 13.239 4.691 23.617 5.847 4.89.546 10.417.698 15.764.842l.349.01 8.39.295c11.546.584 25.886 1.301 34.631 4.804 5.333 2.135 9.162 5.023 11.467 8.635 2.077 3.266 2.918 7.119 2.508 11.541-.66 7.116-4.467 15.709-11.631 26.27-7.421 10.945-19.003 21.251-35.404 31.51-11.944 7.471-24.984 14.873-37.6 22.035l-.177.101-19.22 10.997-.554-.267 19.065-10.909.168-.095 37.735-22.113c16.309-10.202 27.821-20.446 35.194-31.317 8.091-11.928 11.96-21.646 11.615-29.262-.347-7.654-4.944-13.192-13.778-16.729-7.794-3.123-20.315-4.008-31.159-4.578l-.709-.037-2.418-.123c-2.846-.144-5.837-.225-8.726-.304-5.366-.145-10.915-.295-15.877-.849-10.512-1.172-18.643-3.93-23.849-5.902-18.499-7.008-33.33-16.592-47.675-25.859l-.308-.199-8.17-5.243c-23.118-14.648-47.369-28.989-68.038-41.085l-3.881-2.265-1.358-.791c-17.6-10.246-35.788-20.832-48.34-33.547zm-19.944-5.951c-9.508-11.765-10.583-25.652-3.106-40.16 6.603-12.815 19.568-25.493 31.373-36.206l4.275-3.861c9.005-8.114 18.314-16.505 25.123-24.966 8.697-10.809 13.444-21.959 14.515-34.087 2.428-27.534-21.334-51.308-42.314-72.283L576.25 3.41l-.15-.145c-16.463-16.029-33.478-32.594-46.809-50.62-14.573-19.705-24.336-41.234-34.496-67.477l.838-.199c10.153 26.23 19.91 47.743 34.461 67.418 13.314 18.003 30.325 34.565 46.779 50.582l14.095 13.841c9.688 9.683 21.745 21.734 30.228 34.184 9.264 13.587 13.243 26.115 12.166 38.299s-5.849 23.397-14.596 34.271c-6.842 8.503-16.164 16.902-25.177 25.024l-.261.236-4.024 3.636c-11.778 10.686-24.697 23.328-31.261 36.063-7.425 14.409-6.359 28.195 3.083 39.878 10.325 12.773 29.137 22.871 47.337 32.634l6.828 3.678c27.543 14.958 50.302 27.461 71.569 40.807l17.723 11.407c13.883 9.049 26.995 17.596 41.814 25.403 11.843 6.239 26.283 13.052 47.759 15.003l4.948.432.442.038.691.059 2.77.239.693.061c10.154.899 20.163 2.023 26.72 4.873 4.019 1.748 6.97 4.095 8.876 7.08 2.145 3.357 2.967 7.515 2.508 12.527-.756 8.262-4.077 16.639-9.868 24.894-11.247 16.037-38.644 31.949-65.125 47.343l-22.491 13.308-.574-.252c7.137-4.386 14.943-8.924 22.493-13.312 26.443-15.371 53.762-31.266 64.903-47.148 5.756-8.205 9.054-16.527 9.805-24.739.858-9.373-2.81-15.682-11.156-19.31-6.263-2.723-15.904-3.86-25.778-4.747l-.685-.061-1.373-.12-.687-.06-.343-.029-.685-.059-1.017-.087-.457-.039-4.95-.433c-21.7-1.972-36.196-8.828-48.089-15.092-14.846-7.822-27.965-16.374-41.854-25.428l-17.716-11.402c-21.25-13.335-44.005-25.835-71.541-40.79l-6.763-3.643c-18.289-9.811-37.138-19.918-47.525-32.766zm-18.554-5.82c-7.749-11.506-6.954-25.023 2.294-39.097 8.001-12.174 21.717-23.938 35.338-34.835l3.92-3.126c9.98-7.943 20.3-16.158 27.866-24.563 9.337-10.374 14.517-21.149 15.825-32.944 3.064-27.642-23.189-52.16-44.301-71.858L565.529.813c-16.575-14.862-33.714-30.23-47.18-47.033-13.775-17.19-24.181-37.494-33.735-65.816l.844-.19c9.548 28.296 19.944 48.577 33.694 65.737C532.596-29.712 549.727-14.35 566.296.506l17.186 15.614c10.235 9.55 22.941 21.405 31.869 33.768 9.784 13.543 13.883 26.075 12.526 38.308-1.316 11.857-6.523 22.698-15.927 33.144-6.835 7.59-15.861 14.995-24.865 22.184l-.772.616-2.311 1.841-.969.771-2.95 2.353c-13.593 10.872-27.261 22.601-35.21 34.699-9.181 13.97-9.981 27.385-2.28 38.799 8.732 12.959 27.427 22.503 45.514 31.728l6.103 3.124 5.899 3.045c25.027 12.906 48.664 25.097 70.355 38.084 13.143 7.868 25.573 16.026 37.595 23.917l.078.052.133.087 26.882 17.339c14.787 9.208 28.552 17.247 47.251 22.425 4.199 1.162 8.951 2.119 13.55 3.044l1.155.233.578.116.867.176.578.118c7.191 1.472 14.298 3.103 19.258 5.709 4.327 2.274 7.521 5.05 9.577 8.273 5.28 8.291 3.039 19.518-6.773 32.677-6.702 8.99-19.703 17.739-31.528 25.112l-14.917 9.251-.258.16-36.855 23.199-.599-.237c11.986-7.817 24.769-15.725 37.133-23.372l14.916-9.25c11.778-7.344 24.703-16.05 31.326-24.934 6.749-9.052 9.882-17.17 9.432-24.023-.452-6.875-4.506-12.48-12.133-16.486-5.12-2.69-12.682-4.35-20.232-5.879l-.571-.116-.57-.115-.835-.168-.504-.102-1.008-.203c-4.199-.849-8.368-1.718-12.124-2.759-18.82-5.21-32.61-13.274-47.427-22.498-9.101-5.668-18.214-11.647-27.024-17.431l-37.654-23.959c-21.673-12.976-45.304-25.165-70.324-38.067l-5.899-3.045-6.1-3.124c-18.13-9.248-36.869-18.798-45.664-31.853zm30.149 28.561c-19.527-9.63-39.701-19.57-47.642-34.029-6.179-11.25-3.681-24.522 7.214-38.382 9.2-11.703 24.057-23.047 38.733-33.565l3.545-2.532.667-.475 2.309-1.647.771-.551.771-.551c9.397-6.729 18.772-13.663 25.933-20.829 9.927-9.933 15.466-20.338 16.931-31.807 1.425-11.152-2.216-22.577-11.138-34.927-9.876-13.671-23.331-26.155-35.195-36.562-6.405-5.619-13.257-11.324-19.886-16.84-16.698-13.899-33.966-28.272-47.617-44.053-14.805-17.112-25.282-37.494-32.972-64.126l.845-.18c7.681 26.603 18.145 46.953 32.918 64.03 13.625 15.754 30.883 30.121 47.576 44.013l19.891 16.846c11.874 10.417 25.347 22.914 35.245 36.615a85.85 85.85 0 0 1 2.771 4.074c6.937 10.855 9.692 21.042 8.42 31.025-1.472 11.54-7.048 22.015-17.053 32.026-8.2 8.204-19.224 16.06-29.882 23.658l-4.214 3.008c-14.646 10.493-29.453 21.807-38.592 33.433-10.816 13.756-13.291 26.92-7.165 38.07 7.889 14.344 28.002 24.28 47.472 33.883l.284.139 23.471 11.414c20.172 9.738 39.139 18.894 56.788 28.72 26.283 14.633 49.455 30.382 69.905 44.281l1.319.897 1.738 1.181.87.592c13.654 9.27 27.866 18.708 44.525 26.351 4.78 2.193 10.342 4.142 15.723 6.027l3.001 1.054.751.266c5.74 2.041 11.411 4.193 15.943 6.719 4.44 2.476 7.718 5.405 9.821 8.702 5.078 7.96 3.308 18.053-5.435 29.029-6.245 7.84-17.897 15.558-30.29 23.436-16.274 10.342-33.566 21.467-49.819 32.774l-.623-.221c16.271-11.319 33.573-22.451 49.852-32.798 12.355-7.851 23.946-15.541 30.107-23.275 6.115-7.676 8.779-14.908 8.051-21.263-.73-6.364-4.863-11.85-12.346-16.02-5.443-3.035-12.603-5.546-19.533-7.974-5.469-1.915-11.035-3.864-15.844-6.071-17.777-8.158-32.74-18.331-47.208-28.169l-1.265-.86c-20.456-13.905-43.642-29.664-69.922-44.296-17.618-9.807-36.562-18.953-56.617-28.636l-1.091-.527-22.526-10.956-.286-.142zm-21.83-5.633c-17.349-8.434-36.406-18.624-42.746-32.9-2.342-5.274-2.656-10.964-.929-16.912 1.61-5.543 5.04-11.483 10.195-17.658 9.078-10.87 23.527-22.684 44.158-36.114l4.975-3.223.784-.507 2.356-1.524.786-.51c9.826-6.38 19.648-12.965 27.246-19.866 10.444-9.489 16.317-19.539 17.94-30.725 4.003-27.583-25.009-51.738-48.344-71.144-7.189-5.978-14.962-12.018-22.482-17.862-16.815-13.065-34.103-26.496-47.846-41.297-15.54-16.732-26.039-37.161-32.096-62.45l.851-.17c6.049 25.251 16.531 45.642 32.031 62.335 13.731 14.782 31.019 28.216 47.738 41.206l22.556 17.918c11.848 9.854 25.242 20.993 34.939 33.045 2.086 2.593 3.935 5.148 5.549 7.677 6.794 10.631 9.404 20.726 7.963 30.658-1.635 11.263-7.548 21.39-18.085 30.961-8.063 7.323-18.558 14.256-28.921 20.964l-.788.51-1.574 1.018-4.971 3.221c-44.08 28.692-61.432 51.664-53.186 70.236 6.283 14.159 25.262 24.322 42.565 32.732 12.563 6.106 25.701 11.991 38.409 17.683l.256.114c15.238 6.827 30.986 13.882 45.241 21.125 23.953 12.171 46.859 25.653 68.088 40.073 7.532 5.114 14.808 10.377 21.85 15.472l.21.151c12.072 8.737 23.478 16.989 36.247 24.736 5.316 3.226 11.23 6.295 16.953 9.261 6.13 3.178 12.471 6.467 17.945 9.896 7.069 4.43 11.32 9.581 12.629 15.31 1.436 6.28-.779 12.965-6.577 19.873-4.901 5.836-13.043 11.639-21.606 17.311l-.565.374-1.985 1.305-.641.419-.32.21-.641.418-.962.627-.64.417-.32.209-1.995 1.298c-17.922 11.696-33.591 22.556-47.884 33.193l-.647-.203c14.31-10.649 29.992-21.521 47.933-33.226l1.992-1.3 1.905-1.241.635-.415c9.775-6.385 19.487-12.953 24.973-19.489 5.495-6.547 7.708-12.905 6.692-18.791s-5.259-11.294-12.685-15.948c-5.443-3.412-11.769-6.692-17.887-9.865-5.751-2.979-11.67-6.049-17.008-9.288-12.779-7.756-24.182-16.006-36.255-24.74l-.134-.097-21.937-15.534c-21.21-14.407-44.102-27.878-68.034-40.039-14.3-7.265-29.411-14.032-45.408-21.197l-.169-.076-38.322-17.644zm-19.797-4.107c-16.579-8.169-34.193-18.369-39.034-32.104-6.725-19.067 12.831-42.059 59.637-70.284l6.25-3.743c11.263-6.72 22.897-13.663 31.793-21.087 10.902-9.094 17.023-18.82 18.701-29.729 4.221-27.431-24.791-50.484-50.415-70.816-7.864-6.24-16.45-12.518-24.757-18.59-16.738-12.236-34.047-24.89-47.897-38.879-16.267-16.431-26.436-36.334-31.084-60.838l.853-.159c4.639 24.461 14.786 44.318 31.01 60.704 13.82 13.956 31.107 26.597 47.827 38.823l24.793 18.618c12.32 9.779 26.284 20.86 36.328 32.723 2.593 3.066 4.838 6.079 6.736 9.053 6.476 10.129 8.923 19.781 7.461 29.281-1.69 10.992-7.859 20.8-18.867 29.984-7.702 6.427-17.391 12.465-27.115 18.301l-.801.481-3.998 2.388-.583.349-5.662 3.391c-46.647 28.127-66.017 50.97-59.365 69.834 4.798 13.61 22.324 23.775 38.848 31.92 15.216 7.499 31.825 14.388 47.89 21.052l.141.058 36.281 15.572c27.58 12.696 52.536 26.383 74.177 40.681 14.217 9.391 27.176 19.194 39.708 28.675l.18.136 21.389 15.93c5.923 4.279 12.194 8.492 18.261 12.569l.262.176 16.308 11.185c4.897 3.498 8.474 7.011 10.74 10.559 4.82 7.549 3.684 15.257-3.379 23.321-4.388 5.009-11.216 10.035-18.434 14.967l-.565.385-2.84 1.92-.571.383-1.71 1.145-.57.381-.17.114-4.497 3.022c-16.288 11.029-31.746 22.389-45.951 33.768l-.671-.185c14.224-11.394 29.702-22.769 46.006-33.811l4.671-3.138.564-.378 1.13-.756.565-.379 2.26-1.522.562-.381c7.615-5.167 14.903-10.438 19.457-15.638 10.208-11.657 7.84-22.598-7.329-33.442-5.291-3.78-10.986-7.609-16.497-11.311l-18.337-12.619c-7.272-5.25-14.545-10.751-21.575-16.07-12.526-9.478-25.483-19.278-39.684-28.659-21.62-14.283-46.552-27.957-74.104-40.642-11.552-5.317-24.11-10.525-36.258-15.562-16.117-6.684-32.783-13.595-48.069-21.127zm-18.912-3.487c-15.055-8.007-31.436-17.61-34.987-30.331-5.449-19.518 16.356-43.4 64.681-70.985l7.949-4.484 1.681-.943.842-.473c10.389-5.84 20.916-11.883 29.273-18.363 11.339-8.791 17.633-18.237 19.235-28.875 4.102-27.264-25.93-50.161-52.455-70.357-8.445-6.433-17.676-12.824-26.604-19.005-16.73-11.583-33.991-23.533-47.863-36.787-16.771-16.021-26.53-35.414-29.841-59.278l.853-.148c3.303 23.814 13.041 43.156 29.758 59.127 13.855 13.237 31.116 25.189 47.814 36.748 8.931 6.182 18.163 12.575 26.561 18.967 12.792 9.742 27.192 20.707 37.605 32.449 3.108 3.501 5.736 6.936 7.896 10.32 6.152 9.626 8.494 18.824 7.13 27.876-1.615 10.729-7.964 20.265-19.427 29.151-8.425 6.532-18.975 12.585-29.385 18.436l-.843.474-1.685.945-7.947 4.484c-48.156 27.49-69.772 51.22-64.38 70.536 3.514 12.583 19.803 22.158 34.813 30.141 16.582 8.819 36.311 16.337 55.394 23.608l28.225 11.064c31 12.873 58.007 26.462 80.27 40.394 23.501 14.705 43.164 30.473 62.18 45.721l2.675 2.144 16.637 13.267 1.086.864 17.627 14.072c5.073 4.077 10.584 9.023 12.97 14.8 2.606 6.312 1.028 12.507-4.829 18.938-4.797 5.264-12.167 10.589-19.66 15.788l-.584.405-.584.404-.584.404-.584.403-.586.404-.292.202-6.459 4.493c-15.724 11.125-30.137 22.404-44.052 34.476l-.696-.166c13.934-12.09 28.367-23.386 44.115-34.527l6.157-4.283.313-.216.58-.4.581-.401.581-.401.581-.402c7.772-5.377 15.502-10.894 20.42-16.293 12.347-13.552 3.42-24.018-8.136-33.304l-17.382-13.875-1.331-1.059-16.637-13.268-2.624-2.104c-19.024-15.256-38.696-31.031-62.189-45.731-22.238-13.914-49.216-27.49-80.186-40.351-9.008-3.742-18.695-7.433-28.067-11.004l-.111-.042c-19.154-7.299-38.879-14.815-55.493-23.65zm-17.176-2.564c-15.524-8.601-28.611-16.652-31.295-28.164-2.522-10.828 3.055-23.097 16.562-36.469 11.65-11.531 28.937-23.688 51.385-36.135l9.674-5.27.214-.115c10.974-5.925 22.282-12.032 31.285-18.638 11.709-8.592 18.072-17.815 19.438-28.195 1.683-12.788-6.395-24.473-14.53-34.214-9.316-11.153-22.059-22.52-40.104-35.775-8.724-6.408-18.387-12.789-27.734-18.961l-.084-.056c-16.642-10.987-33.848-22.347-47.707-34.994-8.716-7.952-15.526-17.018-20.237-26.943-4.424-9.318-7.151-19.716-8.109-30.91l.855-.135c1.988 23.284 11.236 42.153 28.255 57.686 13.832 12.62 31.025 23.975 47.656 34.955 9.379 6.192 19.076 12.595 27.836 19.03 18.067 13.271 30.831 24.658 40.167 35.835 2.747 3.29 5.489 6.801 7.855 10.506 4.657 7.296 7.856 15.337 6.728 23.894-1.379 10.479-7.802 19.797-19.646 28.489-9.069 6.654-20.395 12.767-31.348 18.681l-.665.359-9.273 5.052c-34.141 18.931-73.533 46.816-67.628 72.158 2.652 11.369 15.654 19.396 31.128 27.968 17.939 9.937 39.957 17.835 61.253 25.471l19.82 7.211c34.87 13.073 63.017 25.94 86.05 39.34 28.174 16.39 50.626 34.383 68.877 49.822 8.76 7.411 17.198 14.953 25.359 22.249l.139.125.558.498 10.325 9.196c4.702 4.156 10.556 9.329 13.211 15.205 2.96 6.551 1.421 12.864-4.72 19.301-5.493 5.758-13.667 11.614-21.569 17.276l-7.997 5.803c-15.157 11.289-28.913 22.828-42.049 35.271l-.716-.146c13.157-12.463 26.936-24.021 42.12-35.331l8.01-5.813.328-.235.659-.472c7.573-5.43 15.271-11.021 20.476-16.477 13.7-14.36 1.42-25.291-8.51-34.073l-10.308-9.182-.577-.516-25.49-22.367c-18.237-15.429-40.675-33.407-68.813-49.776-23.002-13.381-51.119-26.236-85.955-39.296l-19.81-7.208c-21.317-7.643-43.355-15.544-61.349-25.513zm-15.836-.706c-12.638-7.114-24.692-15.241-27.244-26.477-2.532-11.152 3.124-23.801 16.791-37.592 11.791-11.895 29.819-24.721 52.138-37.095l12.01-6.482c10.583-5.635 21.522-11.464 30.382-17.74 12.028-8.521 18.361-17.605 19.353-27.773 1.229-12.622-7.279-24.303-15.775-34.062-9.781-11.233-22.822-22.493-41.039-35.435-8.92-6.334-18.837-12.617-28.431-18.693-16.62-10.527-33.756-21.38-47.531-33.524-8.746-7.709-15.41-16.534-19.803-26.23-4.138-9.138-6.403-19.35-6.726-30.36l.855-.123c.671 22.865 9.323 41.316 26.435 56.402 13.757 12.125 30.897 22.984 47.475 33.483 9.599 6.077 19.522 12.364 28.452 18.706 18.239 12.958 31.303 24.236 41.102 35.493 3.259 3.742 6.518 7.765 9.236 12.021 4.397 6.877 7.374 14.358 6.608 22.225-1 10.273-7.401 19.459-19.577 28.084-8.932 6.326-19.896 12.165-30.499 17.811l-11.993 6.472c-28.371 15.729-74.961 46.289-68.612 74.243 2.524 11.109 14.497 19.199 27.078 26.282 19.254 10.842 43.641 19.013 67.228 26.913l10.029 3.372c38.866 13.163 67.874 25.096 91.282 37.553 25.561 13.6 48.815 29.683 73.194 50.61 10.857 9.324 20.785 18.94 30.382 28.242l7.508 7.254.845.81c3.794 3.634 7.951 7.615 10.747 11.992 4.301 6.733 5.377 14.404-3.158 23.175-5.439 5.591-13.116 11.322-20.541 16.866l-9.388 7.128c-14.655 11.52-28.16 23.685-40.137 36.161l-.741-.124c12-12.498 25.528-24.686 40.213-36.229 2.988-2.348 6.228-4.767 9.361-7.106l2.1-1.569.7-.525c6.532-4.899 12.984-9.884 17.697-14.728 13.777-14.156 1.949-25.569-7.616-34.737l-.851-.815-7.177-6.934-.331-.321-.065-.062c-9.576-9.279-19.477-18.872-30.302-28.165-24.357-20.909-47.588-36.972-73.109-50.554-23.374-12.438-52.349-24.358-91.186-37.51l-9.257-3.114-.771-.258c-23.62-7.913-48.024-16.086-67.341-26.963zm-12.938.537c-10.455-6.199-21.44-13.966-23.544-24.604-2.295-11.606 3.101-24.626 16.026-38.695 11.629-12.661 29.426-26.017 51.466-38.624 4.418-2.528 9.114-5.073 13.662-7.538l.218-.118c10.222-5.541 20.732-11.238 29.331-17.317 12.162-8.596 18.263-17.67 18.651-27.743.484-12.623-8.349-24.206-17.062-33.871-10.001-11.09-23.627-22.519-41.656-34.94-8.859-6.103-18.734-12.14-28.287-17.978-16.56-10.123-33.679-20.586-47.313-32.375-8.675-7.501-15.104-16.131-19.113-25.65-3.77-8.959-5.526-19.009-5.214-29.872l.854-.109c-.649 22.566 7.282 40.663 24.23 55.321 13.601 11.762 30.706 22.218 47.25 32.33 9.583 5.859 19.449 11.891 28.312 17.996 18.053 12.435 31.698 23.884 41.721 34.998 3.711 4.116 7.445 8.578 10.478 13.326 4.121 6.434 6.942 13.394 6.661 20.719-.393 10.183-6.564 19.364-18.875 28.066-8.68 6.134-19.229 11.849-29.431 17.377l-.236.128-13.631 7.522c-47.064 26.923-71.528 54.947-67.188 76.886 2.078 10.513 12.984 18.239 23.389 24.408 19.477 11.547 44.045 19.518 71.81 28.012 30.718 9.395 66.108 20.915 95.65 35.12 28.098 13.511 53.455 29.957 77.519 50.278 14.558 12.296 26.992 25.174 39.017 37.628l.795.823.822.845.832.856c4.707 4.825 10.043 10.289 12.256 16.272 2.533 6.859.605 13.408-5.918 20.022-5.438 5.518-12.626 11.132-19.577 16.562l-.14.109-10.675 8.521c-14.471 12.077-27.294 24.552-38.119 37.082l-.761-.101c10.848-12.556 23.695-25.056 38.195-37.157 3.421-2.855 7.174-5.787 10.802-8.622 6.971-5.445 14.144-11.049 19.54-16.523 14.343-14.55 3.365-25.878-6.383-35.871l-1.658-1.704-.768-.796c-12.047-12.476-24.478-25.349-39.018-37.629-24.04-20.298-49.362-36.722-77.418-50.213-29.495-14.182-64.851-25.692-95.549-35.082-27.795-8.502-52.398-16.482-71.953-28.073zm-10.838 1.981c-12.364-7.568-18.529-14.562-19.976-22.684-2.133-11.99 2.575-25.293 13.984-39.537 10.734-13.397 26.824-26.98 47.825-40.372 4.803-3.063 9.944-6.149 14.916-9.132 9.607-5.769 19.457-11.683 27.653-17.85 12-9.027 18.097-18.239 18.636-28.162 1.398-25.727-27.907-47.378-58.07-67.342-8.673-5.74-18.343-11.406-27.699-16.885-16.936-9.919-34.441-20.171-48.044-31.912-8.494-7.33-14.601-15.822-18.159-25.236-3.328-8.812-4.527-18.727-3.569-29.475l.853-.094c-1.997 22.385 5.081 40.211 21.633 54.494 13.562 11.707 31.053 21.953 47.967 31.86l.13.076c9.32 5.461 18.952 11.105 27.601 16.829 13.408 8.873 28.671 19.301 40.11 30.764 4.624 4.632 8.348 9.158 11.193 13.613 5.043 7.9 7.319 15.576 6.904 23.203-.546 10.027-6.707 19.34-18.839 28.467-8.263 6.218-18.147 12.151-27.708 17.89l-14.918 9.134c-43.857 27.968-65.697 56.205-61.548 79.509 1.43 8.029 7.538 14.967 19.826 22.488 15.999 9.792 37.269 18.27 65.03 25.92 35.441 9.766 69.671 19.57 98.825 32.117 30.455 13.107 57.118 29.116 81.514 48.941 17.052 13.858 30.835 28.446 42.069 40.89l1.486 1.634.317.347c9.788 10.711 20.949 22.849 5.41 38.46-5.365 5.389-12.037 10.86-18.49 16.153l-.251.205-12.322 10.385c-14.4 12.839-26.304 25.639-35.384 38.051l-.785-.068c9.104-12.444 21.037-25.276 35.47-38.144 3.916-3.492 8.277-7.068 12.499-10.53 6.519-5.346 13.192-10.819 18.533-16.183 15.241-15.312 4.272-27.389-5.467-38.044l-.262-.287-1.541-1.695c-11.224-12.437-24.998-27.016-42.03-40.854-24.361-19.798-50.988-35.783-81.392-48.869-29.099-12.523-63.304-22.322-98.728-32.082-27.822-7.666-49.151-16.167-65.202-25.992zm-8.233 4.158c-10.636-6.717-16.465-13.929-17.812-22.049-1.772-10.67 1.567-23.428 9.652-36.898 8.655-14.418 23.874-29.683 45.226-45.372 5.345-3.925 11.194-7.893 16.851-11.731 8.579-5.821 17.377-11.791 24.866-17.877 11.914-9.683 18.02-19.175 18.665-29.018 1.685-25.625-28.667-47.353-57.277-65.7-8.751-5.61-18.664-11.09-28.251-16.388-17.184-9.497-34.954-19.317-48.117-30.894-8.202-7.213-13.891-15.628-16.907-25.011-2.8-8.706-3.392-18.526-1.759-29.192l.852-.078c-3.42 22.32 2.66 39.977 18.571 53.971 13.116 11.537 30.864 21.347 48.031 30.836 9.6 5.302 19.517 10.785 28.285 16.408 19.815 12.706 40.478 27.029 50.797 43.188 4.613 7.211 7.158 14.791 6.636 22.756-.653 9.943-6.819 19.527-18.844 29.301-7.52 6.11-16.318 12.079-24.828 17.854l-16.918 11.777c-21.288 15.641-36.447 30.849-45.06 45.2-8.05 13.411-11.372 26.106-9.61 36.709 1.337 8.036 7.11 15.185 17.666 21.855 16.437 10.388 39.284 17.777 57.351 23.054 9.264 2.706 19.225 5.095 28.857 7.405l21.495 5.354c18.404 4.941 35.27 10.305 50.125 15.943 32.329 12.27 60.151 27.509 85.055 46.587 15.896 12.176 30.492 26.15 44.631 42.721l1.572 1.836c6.606 7.685 13.447 15.631 13.631 24.764.098 4.824-2.906 10.261-9.167 16.621-5.683 5.772-12.582 11.686-19.255 17.407-5.584 4.784-11.282 9.67-16.181 14.379-10.859 10.439-20.034 21.801-28.861 35.743l-.803-.044c8.845-13.971 18.046-25.365 28.944-35.841 4.918-4.729 10.622-9.617 16.138-14.345 6.71-5.752 13.614-11.671 19.281-17.427 6.193-6.288 9.145-11.643 9.049-16.372-.16-7.886-5.379-14.938-11.091-21.707l-.365-.432-.734-.861-.394-.461-.395-.46-.591-.688-.071-.083-1.505-1.753c-14.124-16.554-28.705-30.51-44.577-42.669-24.867-19.049-52.646-34.263-84.915-46.511-14.832-5.629-31.67-10.985-50.049-15.918-6.964-1.869-14.34-3.638-21.473-5.348-9.706-2.328-19.638-4.71-28.899-7.415-18.104-5.287-41.003-12.692-57.518-23.126zm-6.317 5.3c-9.54-6.276-15.083-13.494-16.461-21.453-1.866-10.751.665-23.35 7.517-37.448 7.233-14.883 20.602-30.644 39.736-46.847 5.219-4.418 10.912-8.888 16.418-13.21 20.458-16.058 41.514-32.611 42.785-49.854.769-10.426-4.097-20.982-14.888-32.266-9.639-10.083-22.871-20.169-41.646-31.742-8.739-5.39-18.855-10.578-28.643-15.597-17.758-9.109-36.052-18.489-48.694-30.083-7.884-7.233-13.096-15.653-15.486-25.028-2.215-8.68-2.079-18.446.401-29.028l.849-.059c-5.126 21.878-.072 39.98 15.005 53.809 12.592 11.549 30.865 20.924 48.543 29.989l1.283.658 1.286.66c9.006 4.625 18.152 9.388 26.162 14.326 18.799 11.592 32.061 21.698 41.725 31.806 3.544 3.708 6.453 7.338 8.737 10.915 4.704 7.355 6.75 14.475 6.228 21.544-1.286 17.448-22.466 34.048-42.918 50.1l-.094.074-16.359 13.162c-19.079 16.154-32.4 31.86-39.6 46.679-6.827 14.049-9.347 26.594-7.493 37.286 1.367 7.884 6.859 15.038 16.322 21.265 13.571 8.928 33.199 15.243 50.613 20.241 14.452 4.148 29.974 7.694 44.985 11.122 18.896 4.316 38.374 8.765 55.24 14.345 17.249 5.706 33.62 12.433 48.664 19.994 13.794 6.933 26.902 14.786 38.961 23.342 18.278 12.97 34.225 27.729 47.393 43.866l1.178 1.439 1.451 1.773.413.509.413.509c6.09 7.541 11.709 15.392 11.472 24.258-.131 4.966-3.475 10.616-10.498 17.777-5.284 5.39-11.382 10.876-17.284 16.185l-.106.095c-6.54 5.884-13.231 11.904-18.749 17.714-10.01 10.538-17.958 21.662-25.741 36.044l-.818-.019c7.797-14.412 15.768-25.569 25.815-36.146 5.558-5.849 12.278-11.894 18.779-17.742 5.974-5.373 12.086-10.871 17.368-16.258 6.96-7.097 10.249-12.67 10.378-17.538.262-9.845-6.823-18.506-13.686-26.882l-.152-.185-1.032-1.261c-13.151-16.117-29.075-30.853-47.323-43.801-25.101-17.811-54.528-32.366-87.466-43.26-16.835-5.569-36.318-10.019-55.158-14.322-15.021-3.431-30.553-6.978-45.037-11.135-17.451-5.011-37.139-11.339-50.788-20.32zm-3.749 6.074c-9.131-5.973-14.539-13.049-16.072-21.031-2.04-10.619-.175-23.51 5.542-38.317 6.036-15.636 17.246-31.601 33.317-47.449 5.302-5.227 11.281-10.591 17.066-15.779 19.187-17.208 38.932-34.937 40.266-52.51.794-10.435-3.837-20.959-13.769-31.275-9.471-9.839-22.838-19.734-42.071-31.142-8.832-5.239-18.793-10.336-28.429-15.263-17.425-8.91-35.443-18.126-48.838-29.096-15.508-12.703-19.544-30.374-12.362-54.013l.843-.041c-7.152 23.549-3.129 41.126 12.27 53.736C397.404-18.287 415.4-9.08 432.805-.178l.129.066c9.602 4.912 19.525 9.988 28.337 15.217 19.258 11.426 32.654 21.343 42.156 31.21 9.98 10.368 14.642 20.953 13.842 31.467-1.346 17.749-21.183 35.517-40.344 52.701-5.812 5.212-11.809 10.591-17.117 15.824-16.018 15.798-27.191 31.71-33.206 47.291-5.7 14.763-7.559 27.608-5.526 38.176 1.518 7.909 6.879 14.923 15.932 20.848 10.282 6.726 24.465 12.47 46 18.616 15.894 4.536 33.417 8.121 50.366 11.589 15.869 3.247 32.13 6.575 46.676 10.605 33.433 9.267 63.258 22.312 88.641 38.775 20.833 13.513 37.718 28.424 50.186 44.318l.833 1.061c2.758 3.507 5.549 7.061 7.887 10.723l.118.185c3.655 5.768 6.163 11.806 5.588 18.354-.579 6.597-6.375 13.396-11.957 19.178-4.847 5.022-10.413 10.103-15.797 15.017-7.504 6.85-15.249 13.923-20.937 20.75-9.095 10.911-16.103 22.526-22.039 36.533l-.831.01c5.95-14.04 12.98-25.687 22.104-36.639 5.723-6.87 13.486-13.955 20.992-20.806 5.384-4.913 10.943-9.988 15.771-14.991 5.544-5.741 11.274-12.483 11.842-18.956.936-10.654-6.417-20.029-13.541-29.092l-.834-1.061c-12.442-15.866-29.295-30.749-50.095-44.239-25.336-16.432-55.097-29.451-88.459-38.696-14.524-4.024-30.799-7.354-46.536-10.574-17-3.477-34.555-7.07-50.515-11.624-21.588-6.162-35.832-11.926-46.174-18.693zm-3.486 6.325c-8.585-5.468-13.842-12.254-15.632-20.165-2.411-10.667-1.206-23.197 3.787-39.437 5.021-16.333 14.099-32.356 26.976-47.625 5.426-6.432 11.869-13.103 18.102-19.558l.084-.086c17.327-17.937 35.213-36.471 36.289-54.141.667-10.979-3.774-21.42-13.207-31.031-9.292-9.464-22.624-18.983-41.971-29.953-8.446-4.788-17.925-9.453-27.095-13.961-17.97-8.837-36.554-17.973-49.882-29.139-15.367-12.875-18.556-30.634-9.772-54.278l.836-.023c-8.749 23.55-5.569 41.209 9.686 53.987 13.272 11.119 31.83 20.248 49.78 29.075l.091.045c9.146 4.499 18.601 9.149 27.036 13.934 19.374 10.989 32.741 20.528 42.061 30.024 9.487 9.665 13.955 20.168 13.284 31.22-1.088 17.828-19.051 36.404-36.406 54.368-6.272 6.495-12.734 13.184-18.16 19.618-12.836 15.222-21.887 31.2-26.895 47.487-4.981 16.203-6.18 28.694-3.781 39.31 1.772 7.843 6.987 14.566 15.492 19.984 12.142 7.732 29.101 13.218 42.523 17.133 18.508 5.398 39.225 9.367 59.262 13.206l33.179 6.665c33.635 7.418 63.69 18.764 89.327 33.724 23.195 13.534 40.993 28.339 52.894 44.004 2.353 3.095 4.84 6.37 7.029 9.799 2.827 4.42 5.153 9.096 6.035 13.969 1.789 9.861-2.578 19.144-13.358 28.381-18.033 15.451-29.406 27.101-36.886 37.773-8.032 11.463-13.889 23.657-17.898 37.27l-.845.044c4.022-13.647 9.895-25.875 17.953-37.375 7.513-10.72 18.921-22.402 36.988-37.882 23.873-20.455 11.319-37.064.183-51.72-11.873-15.627-29.632-30.401-52.783-43.908-25.583-14.926-55.568-26.246-89.118-33.646-10.714-2.363-22.062-4.537-33.039-6.639-20.117-3.852-40.876-7.828-59.461-13.247-13.456-3.923-30.471-9.425-42.688-17.205zm.951 8.259c-10.708-6.058-16.966-12.914-19.115-20.964-3.625-13.563-.754-28.874 2.149-40.696 4.202-17.12 11.326-32.897 21.783-48.23 5.198-7.62 11.709-15.556 18.008-23.235l.092-.113c15.028-18.315 30.546-37.242 31.645-55.124.719-11.667-3.71-22.304-13.162-31.614-9.077-8.94-22.22-17.92-41.357-28.257-7.983-4.311-16.889-8.515-25.506-12.582l-.123-.058c-18.59-8.773-37.795-17.833-51.013-29.267-8.059-6.971-12.562-15.495-13.388-25.337-.726-8.629 1.361-18.588 6.198-29.604l.83-.005c-10.386 23.65-8.044 41.52 7.117 54.636 13.156 11.382 32.333 20.435 50.885 29.19 8.678 4.094 17.634 8.32 25.675 12.662 19.171 10.355 32.345 19.357 41.454 28.33 9.51 9.367 13.968 20.069 13.246 31.81-1.108 18.015-16.681 36.977-31.73 55.316-6.359 7.75-12.88 15.699-18.073 23.315-10.432 15.293-17.54 31.033-21.734 48.118-2.897 11.8-5.755 27.075-2.149 40.577 4.753 17.787 29.16 27.13 54.857 34.564 26.057 7.536 54.943 12.868 87.283 18.567 34.416 6.066 64.467 15.648 89.32 28.48 25.226 13.027 43.847 27.464 55.339 42.914l.259.347.059.079c2.17 2.921 4.426 5.956 6.437 9.105l.14.219c4.632 7.31 7.917 15.232 5.742 23.749-1.782 6.98-9.426 13.72-16.657 19.392-15.596 12.236-27.442 25.708-36.211 41.183-6.867 12.119-11.241 24.63-13.368 38.238l-.849.079c2.13-13.641 6.516-26.187 13.403-38.344 8.8-15.53 20.692-29.056 36.36-41.349 7.175-5.629 14.73-12.307 16.476-19.149 3.105-12.16-5.091-23.203-12.339-32.946l-.26-.348c-11.455-15.403-30.026-29.805-55.198-42.802-24.787-12.798-54.762-22.356-89.09-28.406-32.359-5.702-61.271-11.037-87.384-18.591-16.371-4.737-27.49-9.005-36.051-13.847zm31.37 19.245c-22.931-6.457-47.13-15.319-52.569-32.154-4.255-13.159-2.227-27.953.595-41.979 3.53-17.55 9.339-33.644 17.764-49.199 4.652-8.588 10.778-17.585 16.703-26.287 12.68-18.627 25.766-37.862 26.873-55.917.767-12.523-3.653-23.454-13.139-32.492-8.981-8.556-21.549-16.756-40.763-26.585-7.508-3.842-15.745-7.592-23.715-11.221-19.2-8.739-38.985-17.742-52.654-29.557-15.195-13.133-16.705-31.976-4.537-56.002l.823.012c-12.121 23.924-10.601 42.653 4.471 55.679 13.6 11.757 33.351 20.751 52.453 29.446 8.055 3.668 16.296 7.421 23.822 11.27 19.246 9.848 31.851 18.07 40.868 26.659 9.548 9.099 13.995 20.097 13.222 32.691-1.117 18.166-14.245 37.437-26.931 56.071-5.925 8.7-12.049 17.693-16.684 26.255-8.407 15.525-14.211 31.59-17.734 49.113-2.816 14.002-4.835 28.763-.602 41.859 5.381 16.658 29.425 25.486 52.256 31.917 25.572 7.204 53.586 12.421 82.436 17.57 28.782 5.138 61.755 11.98 88.033 23.786 27.085 12.169 46.453 26.011 57.554 41.141l.236.322.053.072c1.927 2.629 3.923 5.351 5.721 8.166 4.913 7.671 8.341 16.03 4.868 25.043-1.958 5.081-8.362 10.009-15.28 15.197l-.433.324-.434.325-3.15 2.372c-19.597 14.906-27.904 30.842-34.143 44.609-6.131 13.533-9.269 27.148-9.318 40.469l-.855.116c.05-13.357 3.195-27.012 9.345-40.584 6.257-13.808 14.577-29.796 34.317-44.811l3.149-2.372c7.203-5.396 13.987-10.496 15.965-15.626 4.689-12.174-3.423-23.262-10.599-33.041l-.238-.325c-11.06-15.076-30.364-28.876-57.383-41.015-26.187-11.766-59.095-18.597-87.837-23.727-28.866-5.152-56.903-10.373-82.529-17.591zm-36.507-5.512c-8.731-4.302-14.735-10.541-17.86-18.538-4.84-12.386-5.566-26.99-2.228-44.646 2.654-14.043 7.77-29.62 16.093-49.022 3.871-9.022 9.039-18.501 14.037-27.668 10.4-19.079 21.126-38.767 22.21-57.22.785-13.376-3.063-23.987-11.756-32.44-8.764-8.524-21.586-16.622-41.57-26.258-6.918-3.335-14.386-6.602-21.613-9.764l-.11-.048C365.7 6.87 344.93-2.214 331.07-14.624c-8.009-7.172-11.913-16.148-11.609-26.678.262-9.077 3.634-19.348 10.026-30.53l.811.028c-13.931 24.372-13.399 43.503 1.532 56.872 13.802 12.356 34.553 21.438 54.629 30.219l.109.047 21.633 9.775c20.025 9.655 32.885 17.778 41.691 26.341 8.759 8.516 12.627 19.191 11.837 32.634-1.091 18.541-11.845 38.26-22.241 57.328-5.02 9.212-10.172 18.667-14.028 27.653-12.279 28.619-24.94 65.108-13.858 93.475 3.1 7.933 9.053 14.109 17.682 18.361 9.318 4.591 21.046 8 32.336 10.999 22.348 5.938 47.266 10.353 71.367 14.621 33.786 5.985 65.699 11.636 90.96 21.117 28.418 10.666 49.156 23.932 59.96 38.369 1.76 2.351 3.456 4.697 4.967 7.063 5.124 8.037 8.127 16.294 4.15 25.643-1.523 3.582-6.533 7.322-11.83 10.989l-.342.236-.172.118-.554.382-.555.38-.37.253-.369.253c-2.7 1.848-5.246 3.592-7.397 5.298-20.756 16.469-28.445 34.344-33.221 49.658-4.281 13.732-5.327 27.463-3.194 41.971l-.853.151c-2.139-14.541-1.089-28.309 3.205-42.082 4.791-15.361 12.497-33.302 33.397-49.887 2.157-1.712 4.683-3.441 7.357-5.272l.45-.308.723-.495.541-.372 1.259-.87.357-.249c4.914-3.436 9.367-6.91 10.74-10.143 5.077-11.936-1.393-22.165-9.096-32.456-10.754-14.373-31.413-27.593-59.749-38.227-25.15-9.437-57.011-15.085-90.745-21.062-24.212-4.29-49.128-8.703-71.507-14.649-11.319-3.006-23.092-6.425-32.474-11.05zm-1.26 7.709c-8.309-3.768-14.283-9.733-18.279-18.231-12.908-27.442-.648-63.908 10.158-96.079 2.924-8.712 6.678-17.843 10.309-26.676l.039-.096c8.127-19.762 16.526-40.196 17.519-59.507.764-14.88-2.983-25.693-11.772-34.035-10.955-10.394-27.651-18.667-40.975-24.712l-15.978-7.032-.219-.095c-22.075-9.566-44.908-19.459-59.946-33.163-15.255-13.902-14.944-33.488.874-58.207l.801.046c-15.748 24.611-16.038 44.072-.911 57.857 14.968 13.638 37.761 23.522 59.809 33.079L395 29.27c13.351 6.058 30.095 14.351 41.104 24.798 8.863 8.409 12.624 19.288 11.855 34.23-.996 19.369-9.408 39.82-17.54 59.596-3.645 8.861-7.412 18.024-10.343 26.753-10.798 32.144-23.019 68.572-10.167 95.898 3.968 8.44 9.89 14.343 18.083 18.059 8.162 3.701 18.31 6.26 29.772 8.988 23.69 5.637 48.341 10.267 71.456 14.429l17.45 3.058 3.313.574 1.327.23.664.115 1.329.231c19.936 3.47 40.058 7.16 56.875 12.172 29.722 8.857 51.104 20.587 61.823 33.925 1.863 2.316 3.716 4.736 5.33 7.264 4.601 7.195 7.238 15.243 2.378 24.083-1.77 3.218-6.404 6.631-11.35 9.996l-.363.246-.727.492-.364.245-.365.245-.911.612c-3.602 2.416-6.992 4.692-9.486 6.867-21.528 18.768-26.684 38.266-29.815 55.07-2.828 15.177-2.254 29.704 1.711 43.183l-.843.181c-3.974-13.516-4.551-28.081-1.716-43.295 1.572-8.429 3.623-17.507 7.954-26.78 4.949-10.591 12.151-19.922 22.018-28.525 2.548-2.222 5.956-4.507 9.563-6.928l.449-.301.09-.06.359-.241.36-.242.359-.242.179-.121.359-.242 1.248-.851.353-.243.352-.243c4.361-3.026 8.241-6.056 9.775-8.846 6.463-11.758-.562-22.197-7.683-31.056-10.663-13.264-31.949-24.946-61.569-33.774-17.509-5.218-38.672-9.01-59.431-12.609l-1.323-.229-1.322-.229-1.321-.229-17.456-3.06c-23.124-4.166-47.794-8.795-71.512-14.44-11.492-2.734-21.679-5.298-29.916-9.035zm-1.97 7.755c-10.115-4.185-14.569-11.292-18.278-18.206-7.893-14.714-6.555-31.85-3.938-48.175 2.875-17.953 7.559-36.248 11.316-50.181l4.975-17.656.084-.293c6.486-22.527 13.188-45.818 14.01-68.443.448-12.308-.587-25.087-11.002-35.189-9.553-9.265-24.747-16.748-40.795-24.228l-15.013-6.83c-22.396-10.07-45.535-20.472-60.934-34.41-8.392-7.595-12.013-16.901-10.765-27.658 1.067-9.194 5.542-19.492 13.68-31.483l.796.056c-17.388 25.629-18.332 44.853-2.947 58.78 15.336 13.881 38.451 24.277 60.81 34.329l15.021 6.833c16.077 7.493 31.31 14.988 40.923 24.312 10.51 10.194 11.533 23.029 11.084 35.378-.822 22.663-7.53 45.967-14.018 68.503l-.212.739-4.846 17.207c-3.755 13.928-8.437 32.215-11.31 50.152-2.613 16.294-3.939 33.389 3.912 48.026 3.69 6.878 8.133 13.93 18.068 18.04 6.017 2.491 13.51 4.207 21.095 5.749l.756.153 4.139.824 1.749.346 57.486 10.645c29.631 5.294 57.433 10.261 83.731 16.244 14.442 3.284 27.102 7.291 37.632 11.908 11.1 4.866 19.87 10.432 26.066 16.548 2.679 2.641 4.819 5.214 6.426 7.732 4.856 7.618 4.821 14.703-.09 21.488-2.266 3.132-6.377 6.359-10.764 9.54l-.427.309-.43.309-.43.309-.432.308-.432.309-.432.307-.432.308-.414.293c-4.105 2.917-8.328 5.921-11.299 8.783-21.199 20.436-24.304 39.667-25.789 59.208-1.249 16.444 1.189 31.604 7.244 45.065l-.833.211c-6.073-13.497-8.517-28.695-7.264-45.177 1.487-19.589 4.58-38.876 25.922-59.448 3.022-2.914 7.268-5.929 11.372-8.843l1.062-.756.638-.454c4.988-3.561 9.861-7.2 12.354-10.645 6.414-8.862 4.37-18.303-6.326-28.858-11.969-11.809-33.891-21.602-63.411-28.317-26.297-5.981-54.122-10.952-83.582-16.214l-57.608-10.669-1.729-.343c-9.22-1.824-18.753-3.709-26.169-6.776zm-2.522 7.8c-10.717-4.02-14.671-11.624-18.174-18.324l-.073-.137c-5.754-11.005-7.916-24.12-6.619-40.089 1.157-14.253 4.911-29.471 8.542-44.187l3.86-16.079.092-.404c6.412-28.303 13.037-57.554 11.251-85.983-.759-12.044-1.628-25.674-12.305-36.228-9.586-9.474-24.884-17.508-38.476-24.295-6.635-3.313-13.755-6.61-20.643-9.8-20.588-9.535-41.822-19.367-56.376-32.18-16.406-14.441-14.908-34.623 4.393-59.978l.78.077c-19.211 25.233-20.676 45.279-4.415 59.591 14.492 12.759 35.701 22.585 56.216 32.087l20.703 9.828c13.616 6.798 28.951 14.848 38.591 24.375 10.777 10.653 11.625 24.328 12.383 36.39 1.791 28.481-4.842 57.75-11.256 86.055l-.092.404-3.806 15.864-.054.219c-7.238 29.346-14.712 59.689-1.94 84.107l.072.138c3.485 6.665 7.454 14.211 17.94 18.145 6.514 2.445 14.712 3.651 23.39 4.924l.964.141 1.855.274c48.08 7.149 91.573 14.942 129.278 23.165 24.841 5.416 49.848 12.059 64.441 23.927 3.072 2.497 5.429 5.03 7.049 7.568.899 1.421 1.572 2.837 2.012 4.249 1.537 4.92.24 9.827-3.859 14.587-3.444 3.999-8.773 7.996-13.925 11.861-4.627 3.47-9.405 7.058-12.752 10.591-21.954 23.173-21.368 44.5-20.835 63.315.512 18.049 4.77 33.396 13.008 46.914l-.816.244c-8.266-13.561-12.533-28.949-13.045-47.035-.258-9.13-.551-19.437 2.072-30.269 2.924-12.08 9.096-22.968 18.875-33.288 3.401-3.589 8.199-7.188 12.837-10.669 5.141-3.857 10.44-7.837 13.824-11.766 7.299-8.475 5.581-17.22-5.192-25.981-14.482-11.778-39.395-18.406-64.168-23.808-37.68-8.217-81.152-16.005-129.207-23.152l-1.858-.274-.93-.137-1.034-.152-.69-.101-.699-.104-.698-.104c-7.337-1.096-14.678-2.334-20.491-4.516zm-3.948 7.517c-10.797-3.681-14.512-11.242-17.807-17.902l-.498-1.002c-12.248-24.573-5.586-52.958 1.456-83.008l4.279-19.011c5.409-26.146 10.345-56.95 5.964-87.181l-.114-.782c-1.787-12.354-3.643-25.128-13.364-35.407-9.42-9.96-24.124-18.264-37.269-25.071-8.017-4.151-16.849-8.206-25.394-12.126-19.497-8.947-39.659-18.197-53.847-30.099-17.412-14.607-15.543-35.026 5.489-60.686l.767.091c-20.926 25.532-22.757 45.808-5.505 60.28 14.115 11.844 34.234 21.08 53.697 30.012 8.622 3.958 17.441 8.005 25.458 12.157 13.172 6.821 27.915 15.145 37.384 25.155a39.79 39.79 0 0 1 4.671 5.981c5.122 8.027 6.891 17.042 8.238 25.98l.086.577.085.576.09.608.264 1.822.114.782c4.387 30.273-.555 61.101-5.967 87.264-1.312 6.35-2.82 12.789-4.28 19.014-7.037 30.031-13.671 58.382-1.473 82.851l.498 1.002c3.281 6.626 7.02 14.119 17.554 17.711 6.379 2.176 14.538 2.895 23.179 3.651l.693.06 1.414.125c42.853 3.794 81.694 11.533 117.809 19.133 22.751 4.788 48.301 10.737 63.432 20.859 2.839 1.898 5.572 4.245 7.33 7.001 2.902 4.553 3.134 10.221-3.286 16.796-3.531 3.618-8.225 7.236-12.766 10.735-5.191 4.001-10.556 8.14-14.121 12.226-10.134 11.617-12.744 22.907-14.542 33.476-1.854 10.903-2.069 21.925-.658 33.693 2.307 19.27 8.481 35.179 18.863 48.627l-.801.264c-10.413-13.489-16.601-29.438-18.915-48.746-1.413-11.789-1.198-22.834.661-33.762 1.801-10.603 4.409-21.937 14.634-33.655 3.367-3.858 8.259-7.715 13.115-11.465l.549-.424.549-.423c4.559-3.516 9.222-7.114 12.698-10.674 4.352-4.457 5.57-8.497 4.953-12.048-.81-4.654-4.781-8.469-8.98-11.277-15.015-10.043-40.487-15.986-63.189-20.763-36.088-7.595-74.902-15.325-117.674-19.114l-2.058-.18c-8.704-.759-16.928-1.474-23.465-3.702zm-5.507 7.046c-10.955-3.752-14.529-11.587-17.701-18.488l-.425-.923c-6.825-14.764-8.529-30.818-5.209-49.08 1.769-9.723 4.224-19.832 6.599-29.609l.019-.081 5.634-24.505c7.113-34.865 7.912-63.04 2.512-88.667l-.283-1.338c-2.502-11.92-5.092-24.234-14.162-34.38-7.602-8.508-19.37-16.785-37.04-26.045-9.122-4.781-19.458-9.343-29.462-13.759l-.116-.051c-19.063-8.41-38.776-17.107-52.79-28.282-9.774-7.796-13.804-17.386-11.982-28.504 1.603-9.773 7.726-20.799 18.19-32.777l.756.105c-22.501 25.752-24.57 46.222-6.218 60.855 13.951 11.126 33.637 19.815 52.678 28.217 10.047 4.433 20.435 9.018 29.615 13.829 17.707 9.282 29.519 17.585 37.159 26.134 9.134 10.219 11.718 22.561 14.223 34.495l.282 1.34c5.409 25.664 4.608 53.87-2.511 88.765-1.661 8.14-3.661 16.378-5.597 24.348l-.041.168c-2.392 9.847-4.848 19.956-6.614 29.675-3.309 18.213-1.61 34.221 5.194 48.938l.425.924c3.153 6.863 6.755 14.631 17.444 18.29 6.628 2.271 15.651 2.53 25.21 2.797 39.221 1.091 73.876 8.199 104.455 14.468l2.568.527c23.675 4.848 46.107 9.917 60.301 18.615 3.536 2.166 5.988 4.335 7.416 6.574.528.816.913 1.644 1.163 2.484 1.14 3.813-.62 7.863-5.22 12.036-3.017 2.738-6.374 5.489-9.623 8.152l-1.199.982-.561.461c-5.627 4.623-11.231 9.366-14.861 14.003-9.827 12.559-10.673 24.52-11.411 35.072-.811 11.612.046 23.218 2.624 35.481 4.315 20.531 12.437 36.943 24.816 50.163l-.784.287c-12.419-13.263-20.558-29.715-24.881-50.286-2.583-12.284-3.444-23.909-2.632-35.541.743-10.596 1.575-22.586 11.492-35.256 3.552-4.541 8.926-9.138 14.376-13.625l.566-.466 1.697-1.391c3.268-2.677 6.649-5.446 9.673-8.19 4.106-3.726 5.877-7.276 5.314-10.699-.56-3.407-3.439-6.689-8.662-9.89-14.077-8.627-36.442-13.691-60.068-18.53l-2.567-.527c-30.576-6.266-65.186-13.357-104.163-14.442l-.662-.019c-9.403-.263-18.271-.545-24.956-2.832zm-6.556 6.924c-11.511-3.903-15.039-12.185-18.174-19.478l-.321-.75c-6.493-15.054-7.809-31.089-4.021-49.022 1.921-9.094 4.474-18.534 6.944-27.664l.041-.15c2.408-8.908 4.897-18.114 6.859-27.197 7.459-34.512 7.737-64.195.856-90.743l-.11-.423c-3.154-12.171-6.416-24.735-15.653-35.236-7.845-8.918-19.96-17.557-37.046-26.409-10.154-5.262-21.93-10.155-33.322-14.887-19.068-7.921-38.757-16.097-53.011-26.702C249.48-.384 245.2-10.026 247.176-21.286c1.737-9.892 8.276-21.034 19.437-33.12l.746.116c-23.766 25.741-26.064 46.941-6.721 61.331 14.186 10.554 33.839 18.721 52.851 26.618 11.469 4.765 23.241 9.656 33.415 14.928 17.131 8.875 29.291 17.544 37.169 26.502a51.68 51.68 0 0 1 4.759 6.344c5.199 8.152 7.836 17.119 10.163 25.973l.176.673.604 2.32.118.453c6.891 26.588 6.613 56.306-.854 90.853-1.975 9.142-4.479 18.403-6.903 27.36-2.469 9.126-5.02 18.564-6.94 27.649-3.775 17.882-2.465 33.872 4.008 48.879l.32.747c3.117 7.257 6.678 15.469 17.91 19.279 6.331 2.147 14.483 2.379 25.601 2.04 37.591-1.145 69.241 5.184 97.172 10.765 21.711 4.337 42.311 8.862 55.769 16.568 3.038 1.739 5.179 3.586 6.423 5.537 2.619 4.113 1.235 8.688-4.148 13.666-2.209 2.043-4.596 4.141-6.906 6.17l-.24.212-.482.423-1.691 1.49-.482.427c-5.863 5.198-11.532 10.494-14.792 15.559-8.347 12.974-8.101 25.104-7.875 35.808.256 12.176 2.288 24.801 6.032 37.525 6.474 21.994 16.254 38.35 30.762 51.459l-.762.307c-14.555-13.153-24.359-29.55-30.843-51.584-3.75-12.742-5.782-25.388-6.04-37.584-.228-10.732-.492-22.895 7.929-35.978 3.486-5.415 9.63-11.034 15.848-16.518l.486-.429.243-.213.486-.428.728-.64 6.893-6.158c3.856-3.566 5.587-6.923 5.207-10.048-.38-3.118-2.862-6.007-7.462-8.641-13.346-7.637-33.881-12.159-55.536-16.487-27.885-5.572-59.497-11.882-96.887-10.745-8.792.267-18.787.357-26.005-2.092zm-7.978 6.021c-12.568-4.491-16.201-13.739-19.141-21.162-5.115-12.921-5.84-27.983-2.166-44.776 2.262-10.325 5.483-21.129 8.601-31.577l.027-.089c2.709-9.082 5.509-18.472 7.742-27.722 8.529-35.337 8.803-65.836.845-93.24-3.775-13.001-7.943-25.535-17.316-35.982-8.146-9.077-20.672-17.888-37.234-26.182-11.082-5.551-24.156-10.57-36.8-15.423-19.375-7.436-39.413-15.126-54.129-25.277-11.433-7.886-14.982-17.16-13.883-26.631 1.438-12.395 10.832-25.125 20.945-35.527l.733.128c-10.038 10.324-19.357 22.953-20.809 35.237-1.113 9.418 2.393 18.632 13.733 26.455 14.648 10.104 34.655 17.789 54.009 25.217 12.672 4.866 25.744 9.885 36.857 15.45 16.608 8.32 29.179 17.16 37.361 26.276 9.423 10.503 13.594 23.063 17.375 36.082 7.971 27.448 7.695 57.987-.843 93.362-2.243 9.285-5.052 18.702-7.769 27.812l-.043.145c-3.102 10.405-6.308 21.157-8.555 31.424-3.666 16.749-2.942 31.765 2.153 44.631 2.924 7.387 6.588 16.568 18.891 20.966 5.968 2.131 14.413 2.705 26.599 1.781 14.662-1.112 26.864-1.343 37.301-.704 19.1 1.167 36.617 4.34 51.541 7.221 19.502 3.765 38.031 7.715 50.28 14.654 2.373 1.343 4.061 2.796 5.063 4.367 2.416 3.779.83 8.245-4.702 13.507-8.707 8.28-17.562 17.06-21.818 25.371-6.762 13.199-5.359 25.711-4.115 36.753 1.435 12.742 4.611 25.746 9.443 38.661 8.718 23.311 20.019 39.486 36.613 52.415l-.74.325c-8.973-6.991-16.41-15.004-22.728-24.487-5.357-8.039-9.929-17.214-13.984-28.055-4.836-12.932-8.019-25.954-9.454-38.704-1.249-11.066-2.67-23.612 4.144-36.918 4.3-8.394 13.19-17.201 21.922-25.505 3.809-3.623 5.68-6.853 5.628-9.732s-2.031-5.418-5.953-7.64c-12.133-6.873-30.597-10.818-50.051-14.574-14.897-2.875-32.384-6.04-51.391-7.201-10.36-.634-22.496-.405-37.097.702-12.336.935-20.95.36-27.085-1.834zm-10.443 5.499c-12.638-5.401-17.329-14.296-20.268-22.279-4.412-12.001-4.15-26.339.803-43.831 2.668-9.432 6.096-19.259 9.414-28.763l.027-.078c3.54-10.147 7.2-20.636 10.066-30.969 10.125-36.5 10.856-67.938 2.234-96.113-3.498-11.432-8.069-24.553-18.048-35.6-8.609-9.529-21.588-18.464-38.584-26.549-11.961-5.69-26.238-10.683-40.046-15.508-20.001-6.992-40.678-14.217-56.036-24.015-11.858-7.567-16.725-17.251-14.464-28.783 1.979-10.086 9.326-21.427 21.829-33.709l.726.138c-10.668 10.479-20.565 23.264-22.08 35.611-1.162 9.465 2.597 18.674 14.698 26.395 15.289 9.754 35.937 16.974 55.912 23.955 13.819 4.831 28.109 9.825 40.115 15.537 17.046 8.11 30.076 17.076 38.722 26.647 2.502 2.77 4.663 5.665 6.553 8.629l.195.306c5.566 8.834 8.757 18.266 11.356 26.762 8.633 28.221 7.903 59.705-2.237 96.248-2.863 10.327-6.517 20.801-10.052 30.934l-.046.132-.045.129c-3.3 9.46-6.711 19.24-9.364 28.618-4.94 17.447-5.2 31.735-.807 43.682 2.92 7.937 7.597 16.761 20.052 22.085 6.14 2.624 16.215 3.361 28.384 2.056l3.362-.364 2.552-.275 1.023-.11c9.381-1.003 18.883-1.929 27.63-1.956 17.871-.057 33.95 2.598 47.62 5.089 16.507 3.006 33.537 6.472 44.384 12.855 1.653.973 2.856 2.049 3.613 3.236 2.261 3.547.501 8.072-5.23 13.697-9.04 8.875-15.569 18.245-18.877 27.099-5.031 13.457-2.619 25.666-.278 37.472 2.621 13.227 6.896 26.495 12.714 39.435 7.327 16.3 18.759 37.041 42.318 53.035l-.716.341c-23.648-16.054-35.096-36.836-42.434-53.165-5.824-12.957-10.106-26.24-12.73-39.484-2.343-11.83-4.771-24.061.291-37.611 3.329-8.908 9.893-18.335 18.987-27.26 3.726-3.657 5.719-6.825 5.999-9.544.282-2.737-1.166-5.023-4.347-6.895-10.725-6.311-27.682-9.77-44.137-12.768-13.631-2.483-29.657-5.126-47.387-5.07-9.772.031-20.583 1.2-31.042 2.333l-3.365.363c-12.351 1.324-22.642.579-28.959-2.12zm-18.568.512c-6.367-4.513-10.958-11.105-13.645-19.591-3.911-12.339-2.835-26.264 3.279-42.568 2.897-7.719 6.221-15.708 9.439-23.435 4.967-11.928 10.101-24.26 14.023-36.419 12.167-37.708 13.736-70.148 4.798-99.173-3.496-11.352-8.484-24.464-18.95-35.646-9.102-9.727-22.551-18.592-39.974-26.347-12.755-5.679-28.079-10.506-42.9-15.174-20.866-6.572-42.441-13.364-58.558-22.914-12.571-7.448-17.739-17.136-15.366-28.79 2.08-10.202 9.806-21.62 22.958-33.937l.711.149c-14.029 13.14-21.732 25.217-23.058 35.729-1.336 10.586 3.791 19.588 15.445 26.493 16.039 9.504 37.579 16.292 58.415 22.853 14.838 4.672 30.178 9.503 42.986 15.205 17.482 7.782 30.983 16.678 40.124 26.447 3.028 3.233 5.596 6.623 7.803 10.085 5.456 8.573 8.707 17.57 11.202 25.67 4.669 15.161 6.456 31.711 5.315 49.187-1.021 15.633-4.423 32.501-10.113 50.133-3.928 12.174-9.065 24.513-14.033 36.443l-9.437 23.426c-6.095 16.252-7.163 30.123-3.273 42.406 3.273 10.331 9.23 17.692 17.788 22.062 8.6 4.392 19.825 5.774 33.618 4.115l12.097-1.631c8.027-1.139 16.193-2.299 23.768-2.721 15.476-.861 29.03.874 41.378 2.874 13.891 2.249 29.337 5.326 38.5 11.126 1.165.735 1.985 1.532 2.524 2.376 2.624 4.115-1.473 9.336-5.683 14.042-7.966 8.901-13.358 18.688-16.017 29.091-7.221 28.232 5.894 53.281 17.476 75.38l1.404 2.684c9.263 17.73 22.188 37.909 47.759 53.244l-.691.355c-25.668-15.395-38.611-35.616-47.89-53.377l-1.404-2.684c-5.953-11.358-12.107-23.103-15.906-35.621-4.309-14.196-4.828-27.258-1.589-39.931 2.673-10.452 8.093-20.295 16.111-29.255 2.841-3.176 5.606-6.586 6.242-9.687.48-2.341-.244-4.507-3.035-6.274-9.039-5.72-24.387-8.787-38.216-11.027-12.292-1.992-25.777-3.714-41.087-2.861-7.482.415-15.624 1.57-23.5 2.689l-12.264 1.653c-16.402 1.972-29.376-.336-38.574-6.853z"/><path d="M358.059 342.618c-8.774-6.167-12.584-14.631-14.24-20.644-3.448-12.524-1.874-26.783 4.675-42.382 3.602-8.577 8.162-17.549 12.575-26.232l.059-.115c5.497-10.813 11.179-21.992 15.344-32.948 14.496-38.143 17.4-72.612 8.637-102.449-2.307-7.85-5.051-14.627-8.388-20.724-3.001-5.476-6.916-10.65-11.634-15.375-9.544-9.555-23.487-18.172-41.444-25.61-13.607-5.636-30.037-10.235-45.93-14.684-21.837-6.112-44.354-12.411-61.283-21.684-13.31-7.29-18.738-16.981-16.14-28.803 2.257-10.27 10.399-21.765 24.192-34.17l.701.159c-10.212 9.189-22.655 22.892-24.444 36.305-1.255 9.407 2.723 18.672 16.365 26.145 16.838 9.224 39.315 15.517 61.056 21.602 16.014 4.483 32.448 9.082 46.098 14.737 18.019 7.462 32.016 16.111 41.601 25.709 3.683 3.684 6.875 7.64 9.529 11.8.767 1.198 1.485 2.412 2.159 3.642 3.347 6.111 6.098 12.906 8.405 20.77 8.779 29.892 5.869 64.415-8.646 102.608-4.163 10.956-9.836 22.119-15.324 32.916-4.464 8.779-9.043 17.79-12.656 26.39-6.527 15.546-8.096 29.751-4.663 42.218 1.981 7.202 6.77 17.058 18.269 23.054 8.022 4.184 19.303 6.495 35.16 4.74 5.896-.654 12.121-1.742 18.146-2.796 5.853-1.025 11.863-2.077 17.674-2.758 12.377-1.449 24.638-1.274 38.594.549 15.826 2.067 26.676 5.143 33.149 9.415 4.963 3.275 1.92 7.955-1.57 12.59l-.219.289-.219.29-.233.306-.233.305-1.835 2.456c-7.137 9.924-11.517 20.24-13.381 31.534-4.875 29.506 10.508 55.624 24.091 78.664l.164.281c10.567 17.929 25.12 38.236 52.896 53.022l-.669.368c-27.888-14.844-42.462-35.195-53.047-53.154l-.164-.281c-13.6-23.077-29.011-49.212-24.121-78.824 1.873-11.338 6.269-21.7 13.445-31.675.572-.796 1.193-1.611 1.795-2.403l.493-.647.222-.293c3.532-4.668 6.613-9.358 1.876-12.485-6.371-4.205-17.101-7.255-32.824-9.308-13.855-1.81-26.006-1.981-38.239-.548-5.709.669-11.66 1.709-17.418 2.716-6.171 1.079-12.433 2.176-18.411 2.837-16.88 1.868-30.331-.633-39.995-7.426zm-8.755 5.202c-10.963-5.716-15.764-14.385-17.713-22.296-3.135-12.735-.895-26.926 6.844-43.381 4.157-8.841 9.383-18.035 14.439-26.929l.046-.081c5.782-10.172 11.762-20.692 16.384-31.033 17.444-39.032 22.012-74.629 13.585-105.803-2.448-9.044-5.136-15.683-8.714-21.523-3.093-5.039-7.171-9.862-12.135-14.336-10.303-9.289-25.618-17.743-45.518-25.127-15.821-5.87-34.305-11.462-56.512-17.09l-.554-.14c-19.055-4.831-38.739-9.818-53.78-17.476-13.996-7.127-19.637-16.823-16.756-28.82 2.444-10.19 11.255-22.074 25.472-34.383l.692.168c-10.787 9.34-23.944 23.234-25.878 36.694-1.356 9.439 2.797 18.666 17.135 25.967 14.95 7.613 34.601 12.597 53.609 17.415l.574.145c22.231 5.636 40.745 11.236 56.597 17.117 19.963 7.407 35.336 15.893 45.688 25.224 4.706 4.241 8.623 8.794 11.657 13.548l.389.644.132.214c3.594 5.864 6.289 12.522 8.739 21.587 4.382 16.21 5.238 33.878 2.546 52.508-2.457 17.002-7.889 34.989-16.146 53.466-4.632 10.363-10.615 20.888-16.401 31.066-5.09 8.956-10.316 18.153-14.469 26.984-7.714 16.401-9.942 30.533-6.822 43.206 1.924 7.822 6.673 16.386 17.458 22.037 8.218 4.307 19.935 6.926 36.576 6.243 8.338-.342 17.198-1.921 25.83-3.525l.784-.146.783-.145 9.615-1.74c12.848-2.18 25.256-2.793 36.881-1.82 13.207 1.103 23.096 3.78 28.577 7.754.652.471 1.134.976 1.475 1.511 1.626 2.547.032 5.734-2.104 8.976l-.141.213-.072.107-.143.214-.291.428-.167.244-.759 1.097c-.952 1.369-1.851 2.664-2.563 3.915-6.222 10.931-10.009 22.418-11.258 34.142-1.439 13.533 2.045 25.725 7.72 39.868 5.217 12.998 12.221 26.287 20.826 39.496 11.652 17.896 27.616 38.096 57.614 52.318l-.648.382c-30.117-14.28-46.105-34.524-57.782-52.454-8.608-13.221-15.625-26.526-20.848-39.541-5.687-14.166-9.18-26.386-7.733-39.978 1.253-11.761 5.052-23.288 11.296-34.259.724-1.275 1.669-2.633 2.583-3.948l.19-.272.378-.546.282-.41c2.887-4.22 5.227-8.409 1.416-11.17-5.371-3.894-15.104-6.537-28.174-7.63-11.5-.962-23.78-.356-36.496 1.801l-9.367 1.693-.189.035-1.185.221-.792.147c-8.55 1.586-17.324 3.137-25.684 3.48-16.845.692-28.706-1.94-37.018-6.274zm-16.758 2.247c-7.14-4.897-11.774-11.954-13.785-20.975-2.897-12.988-.1-27.466 8.542-44.26 4.901-9.529 10.862-19.426 16.628-28.995 5.587-9.273 11.364-18.862 16.312-28.312 20.64-39.411 27.391-77.145 19.53-109.124-1.503-6.113-3.86-14.053-8.799-21.247-3.562-5.19-8.283-10.117-14.038-14.64-11.299-8.885-27.354-16.622-49.084-23.653-15.477-5.008-32.694-9.443-49.346-13.733l-8.684-2.241-6.886-1.771-4.119-1.056-1.031-.266c-15.478-3.992-31.078-8.263-43.621-14.249C179.558 18.571 173.78 8.867 176.991-3.3c2.702-10.236 11.947-22.166 26.725-34.514l.682.177c-16.262 13.585-25.279 26.081-26.956 36.763-1.689 10.761 4.064 19.686 17.372 26.038 13.855 6.612 31.534 11.143 48.635 15.521l.708.181 6.181 1.591 6.675 1.724 1.908.492c16.701 4.302 33.959 8.747 49.495 13.774 21.795 7.051 37.913 14.815 49.265 23.743 5.783 4.546 10.527 9.496 14.108 14.712l.841 1.271c4.387 6.884 6.566 14.284 7.986 20.058 4.108 16.724 4.291 34.954.543 54.185-3.45 17.692-10.213 36.239-20.105 55.126-4.954 9.461-10.731 19.051-16.318 28.325-5.771 9.584-11.725 19.471-16.618 28.979-8.611 16.736-11.394 31.155-8.513 44.079 1.827 8.195 6.47 17.114 17.184 22.84 8.169 4.366 19.86 6.881 36.52 5.816 12.406-.795 25.065-2.816 40.257-5.611 13.249-2.437 24.207-4.273 34.498-3.82 12.047.529 20.664 2.664 24.887 6.195.482.4.858.827 1.143 1.273 1.831 2.87-.05 6.601-2.262 10.334l-.15.252-.15.252-.151.251-.151.251-.227.377c-1.036 1.716-2.013 3.337-2.669 4.862-5.602 13.022-8.754 25.551-9.368 37.242-.758 14.457 4.275 27.454 9.501 39.525 5.826 13.46 13.293 26.649 22.189 39.201 12.488 17.615 29.588 37.446 61.726 51.08l-.622.391c-14.081-5.973-26.179-13.481-36.974-22.943-8.819-7.728-16.741-16.713-24.935-28.273-8.905-12.567-16.38-25.773-22.215-39.249-5.233-12.089-10.283-25.108-9.52-39.627.615-11.723 3.773-24.284 9.39-37.336.668-1.556 1.65-3.185 2.689-4.907l.168-.279.252-.418.25-.418.231-.391.153-.261.151-.26c2.326-4.033 3.968-7.967.801-10.614-4.099-3.427-12.527-5.525-24.412-6.047-10.077-.443-20.961 1.369-34.144 3.794-15.234 2.803-27.945 4.833-40.449 5.634-17.61 1.126-31.289-1.557-40.65-7.975zm-13.223 4.066c-6.839-5.033-11.248-12.276-13.116-21.52-2.712-13.394.52-28.138 9.869-45.081 5.181-9.39 11.692-19.148 17.989-28.586 6.516-9.764 13.25-19.86 18.705-29.792 23.272-42.369 31.332-79.692 23.967-110.939-1.568-6.654-3.866-14.356-8.995-21.042-3.932-5.129-9.167-9.954-15.555-14.341-12.264-8.424-29.354-15.511-53.792-22.3-12.28-3.412-25.691-6.512-38.664-9.509-27.028-6.247-54.98-12.705-77.061-22.785-15.117-6.902-20.925-16.656-17.263-28.993 3.037-10.229 12.746-22.173 28.076-34.555l.673.185c-9.903 8.003-25.937 22.934-28.487 37.374-1.665 9.427 2.403 18.647 17.643 25.605 21.985 10.038 49.897 16.492 76.892 22.731l38.721 9.523c24.504 6.806 41.661 13.919 53.985 22.384 6.422 4.409 11.683 9.261 15.64 14.417a38.78 38.78 0 0 1 1.906 2.723c3.846 6.041 5.76 12.627 7.126 18.415 3.936 16.703 3.496 35.258-1.305 55.146-4.195 17.372-11.832 36.208-22.693 55.983-5.464 9.948-12.202 20.048-18.717 29.813l-.081.121c-6.266 9.397-12.743 19.11-17.895 28.446-9.318 16.884-12.532 31.569-9.836 44.896 2.203 10.89 7.795 18.825 16.693 23.778 8.926 4.971 21.179 6.949 36.699 5.895 10.719-.727 22.191-3.008 33.389-5.333l.839-.175 1.675-.349 1.228-.255.82-.171.821-.17 2.285-.472.763-.157c11.7-2.394 23.548-4.567 34.402-4.763 11.073-.2 18.784 1.449 22.256 4.801.382.366.695.751.949 1.149 2.085 3.266.248 7.546-1.824 11.792l-.137.28-.206.419-.206.419c-1.009 2.038-1.956 3.962-2.523 5.77-3.986 12.746-8.288 27.487-8.813 41.116-.533 13.797 4.955 26.55 10.625 38.429 6.175 12.942 14.206 25.656 23.864 37.79 14.673 18.433 32.788 37.199 65.647 49.67l-.596.401c-14.759-5.601-27.538-12.844-39.055-22.136-9.216-7.434-17.478-15.968-26.792-27.67-9.673-12.149-17.711-24.88-23.896-37.84-5.68-11.897-11.183-24.674-10.649-38.538.527-13.669 4.833-28.425 8.826-41.184.576-1.831 1.524-3.753 2.527-5.789l.68-1.386.146-.302c2.178-4.534 3.842-9.024.663-12.094-3.332-3.217-10.81-4.83-21.672-4.635-10.744.194-22.605 2.374-34.33 4.776l-.814.167-3.658.758-.811.169-.404.084-2.522.525-.843.175c-10.963 2.272-22.175 4.471-32.765 5.189-17.946 1.218-31.745-1.625-41.013-8.451zm-13.447 4.585c-6.637-5.267-10.915-12.767-12.732-22.288-2.614-13.702.939-28.69 10.852-45.817 6.33-10.936 14.35-22.326 22.106-33.339l.099-.14c6.004-8.527 12.209-17.339 17.688-26.015 25.949-41.087 35.868-80.04 28.683-112.647-1.572-7.138-3.771-14.604-9.149-20.855-4.326-5.031-10.164-9.72-17.349-13.939-16.898-9.921-40.533-16.271-59.236-20.695-9.485-2.244-19.555-4.391-29.301-6.468l-.21-.045c-30.974-6.602-63.004-13.425-87.08-25.233-14.735-7.227-20.235-17.096-16.349-29.335 3.258-10.254 13.308-22.167 29.058-34.466l.663.193c-12.074 9.429-26.936 23.456-29.727 37.038-1.957 9.524 2.01 18.831 17.013 26.19 23.975 11.755 55.961 18.578 86.9 25.171l29.531 6.518c18.748 4.434 42.445 10.801 59.432 20.771 7.224 4.241 13.095 8.958 17.45 14.02 1.04 1.211 1.961 2.463 2.783 3.75 3.471 5.421 5.155 11.428 6.43 17.215 3.781 17.167 2.907 36.014-2.593 56.019-4.995 18.163-13.791 37.288-26.138 56.837-5.517 8.736-11.761 17.602-17.798 26.175-7.754 11.009-15.768 22.392-22.086 33.307-9.878 17.066-13.411 31.991-10.812 45.629 2.165 11.358 7.71 19.659 16.552 24.875 8.875 5.235 21.069 7.37 36.522 6.367 11.366-.737 23.434-3.093 35.33-5.649l.848-.182.846-.183 4.219-.919.84-.183 1.767-.387 9.095-2.122 1.175-.283.71-.17.712-.171c7.558-1.808 15.282-3.556 22.588-4.15 5.2-.423 9.642-.308 13.152.32 3.476.622 6.035 1.747 7.501 3.35 2.048 2.24 1.305 5.332.667 8.054l-.144.619c-1.125 4.912-2.323 9.67-3.561 14.144l-2.533 8.795-.114.388-1.112 3.79-.221.76c-3.017 10.406-5.75 20.97-5.688 30.669.089 13.565 6.105 26.254 11.741 37.082 6.416 12.323 14.982 24.418 25.464 35.946 19.086 20.992 38.243 37.154 69.594 47.773l-.573.41c-15.315-5.189-28.726-12.106-40.988-21.135-11.964-8.812-21.283-18.475-28.82-26.766-10.497-11.546-19.081-23.661-25.506-36.005-5.645-10.848-11.68-23.559-11.767-37.188-.071-11.162 3.539-23.424 7.028-35.283l.049-.166 2.602-9.022c1.236-4.469 2.431-9.225 3.555-14.134l.142-.617c.631-2.687 1.318-5.727-.606-7.831-1.409-1.539-3.893-2.621-7.298-3.213-3.368-.585-7.639-.691-12.657-.282-7.938.644-16.517 2.706-24.818 4.705l-9.239 2.157-1.767.387-4.674 1.019-.852.184c-12.334 2.666-24.899 5.177-36.809 5.95-18.048 1.171-31.869-1.943-41.08-9.255zm-13.396 4.645c-6.487-5.555-10.664-13.358-12.434-23.189-2.529-14.054 1.217-29.245 11.437-46.442 6.867-11.551 15.657-23.573 24.156-35.199l17.869-25.195c28.787-43.237 39.988-81.661 33.308-114.207-1.369-6.68-3.335-14.315-9.25-20.431-4.664-4.822-11.096-9.293-19.117-13.288-16.535-8.237-38.252-13.631-65.778-19.192l-20.486-3.991c-35.226-6.74-71.646-13.702-95.91-27.584-6.359-3.637-11.044-7.562-13.929-11.668-3.205-4.56-4.295-9.491-3.244-14.664 1.204-5.933 5.061-12.3 11.779-19.464 5.273-5.623 12.104-11.546 21.478-18.623l.653.202c-12.96 9.781-30.305 24.261-33.06 37.819-1.995 9.824 3.559 18.344 17.008 26.038 24.136 13.807 60.497 20.77 95.666 27.498l.511.098 19.998 3.898c27.576 5.571 49.35 10.975 65.972 19.257 8.069 4.021 14.54 8.52 19.238 13.374a28.66 28.66 0 0 1 3.544 4.496c3.312 5.183 4.719 10.908 5.776 16.063 3.567 17.375 2.092 36.495-4.381 56.828-5.697 17.895-15.447 37.271-28.977 57.595-5.609 8.426-11.844 16.955-17.873 25.201-8.5 11.624-17.286 23.642-24.14 35.173-10.188 17.135-13.914 32.265-11.397 46.252 2.124 11.8 7.611 20.498 16.381 26.063 8.804 5.586 20.913 8.023 36.267 7.272 14.134-.69 29.351-4.3 44.248-8.073l.979-.248.977-.249.489-.124.975-.249.975-.248c10.472-2.668 21.297-5.427 31.577-7.175 5.054-.859 9.406-1.064 12.817-.634 3.37.424 5.814 1.469 7.098 3.11a10.68 10.68 0 0 1 .629.884c3.445 5.393 1.142 12.122-1.415 18.738l-.163.422-.164.422-.164.421c-.813 2.08-1.576 4.042-2.175 5.961l-1.431 4.523-.233.733c-4.43 13.933-9.004 28.326-7.988 41.169 1.864 23.549 14.759 46.267 39.423 69.45 19.162 18.012 39.215 35.032 73.48 45.381l-.547.419c-34.428-10.398-54.507-27.458-73.701-45.499-24.712-23.228-37.639-45.999-39.508-69.617-.983-12.395 3.206-26.175 7.466-39.591l.267-.839.267-.838.204-.643 1.458-4.61c.604-1.933 1.369-3.899 2.18-5.979l.085-.219.17-.439.171-.439.169-.439c2.638-6.854 4.879-13.79.718-19.108-1.238-1.581-3.563-2.576-6.821-2.963-3.213-.382-7.343-.171-12.238.662-10.184 1.732-20.981 4.481-31.425 7.142l-1.987.506-.986.25c-15.406 3.915-31.214 7.765-46.015 8.489-18.038.883-31.804-2.636-40.926-10.45zm-9.236 8.316c-8.863-6.039-14.397-15.257-16.56-27.605-2.478-14.14 1.476-29.953 11.742-46.997 7.178-11.914 16.5-24.317 25.514-36.31l18.148-24.862c31.759-46.262 43.525-82.965 37.048-115.509-1.325-6.645-3.292-14.223-9.852-20.079-5.133-4.582-12.448-8.819-21.743-12.593-19.872-8.069-46.432-12.719-72.124-17.215l-5.433-.946-1.972-.343c-19.756-3.434-40.146-6.977-58.798-11.741-21.141-5.4-36.878-11.627-48.098-19.038-11.94-7.885-16.904-16.788-14.733-26.469 3.106-13.851 20.437-28.044 35.276-38.904l.643.21c-14.781 10.817-31.998 24.938-35.068 38.633-2.146 9.556 2.759 18.369 14.597 26.186 24.947 16.475 66.459 23.7 106.62 30.677l7.299 1.272c25.838 4.521 52.433 9.172 72.411 17.283 9.351 3.796 16.714 8.061 21.89 12.68a26.5 26.5 0 0 1 4.691 5.512c3.024 4.751 4.292 9.972 5.237 14.714 3.522 17.686 1.601 36.5-5.872 57.52-6.309 17.749-16.526 36.787-31.229 58.208-5.705 8.311-12.026 16.721-18.139 24.854-9.017 11.996-18.338 24.4-25.506 36.297-10.229 16.983-14.164 32.731-11.7 46.805 2.141 12.221 7.601 21.339 16.301 27.316 8.734 6.001 20.732 8.845 35.93 8.494 15.058-.348 31.362-4.387 47.33-8.645l1.048-.28 1.048-.281 1.046-.28 1.045-.281.521-.14c10.022-2.69 20.279-5.444 29.93-7.247 5.335-.997 9.888-1.27 13.413-.839 3.481.426 5.949 1.541 7.162 3.318 3.849 5.646 1.625 12.588-1.271 19.512l-.181.432-.184.433-.204.478-.719 1.669c-1.104 2.552-2.141 4.952-2.932 7.301-5.35 15.903-10.12 32.749-8.825 48.196 1.214 14.482 5.672 27.185 13.25 37.759 7.701 10.749 19.093 20.221 28.155 27.271l.402.313c20.657 16.068 42.012 32.669 77.163 42.057l-.519.427c-35.329-9.438-56.702-26.073-77.382-42.159l-.404-.314c-9.079-7.063-20.494-16.552-28.221-27.339-7.606-10.615-12.079-23.359-13.296-37.879-1.3-15.503 3.48-32.377 8.838-48.3.795-2.363 1.881-4.874 2.93-7.302l.205-.473.204-.474c3.267-7.578 6.309-15.301 2.18-21.359-1.169-1.713-3.516-2.771-6.881-3.157-3.316-.38-7.633-.103-12.796.862-9.598 1.793-19.412 4.427-29.805 7.219l-1.051.283c-17.185 4.615-34.905 9.3-51.378 9.681-15.38.356-27.513-2.497-36.341-8.512zm-13.231 5.149c-8.766-6.512-14.279-16.118-16.492-28.765-2.738-15.647 1.388-32.376 12.261-49.724 7.004-11.176 16.029-22.71 24.758-33.865 6.599-8.434 13.352-17.065 19.314-25.599 20.978-30.028 47.838-74.75 39.039-116.281-1.382-6.509-3.491-13.922-11.008-19.529-5.775-4.311-14.153-8.253-24.899-11.717-18.729-6.038-42.078-9.543-64.663-12.931l-14.417-2.192c-19.139-2.989-41.365-6.769-61.087-12.138-21.907-5.967-37.518-12.967-47.714-21.407-10.56-8.741-14.211-17.855-11.141-27.865 4.297-14.004 22.057-28.048 37.143-38.762l.63.217C136.713-13.059 119.058.92 114.808 14.774c-3.034 9.893.573 18.919 11.048 27.59 21.542 17.829 64.855 26.6 108.468 33.411l13.756 2.093.631.095c22.619 3.393 46.012 6.9 64.843 12.969 10.808 3.483 19.243 7.452 25.072 11.801 2.788 2.078 4.836 4.394 6.383 6.815 2.67 4.202 3.843 8.724 4.724 12.877 3.718 17.559 1.595 36.499-6.486 57.907-6.59 17.452-17.257 36.621-32.609 58.599-5.983 8.565-12.755 17.219-19.302 25.586l-.061.078c-8.712 11.137-17.718 22.649-24.697 33.783-10.832 17.281-14.938 33.943-12.212 49.524 2.193 12.53 7.636 22.041 16.254 28.491 8.65 6.474 20.496 9.871 35.472 10.151 11.315.213 25.531-1.974 43.46-6.702l13.168-3.673c8.46-2.426 17.209-4.934 26.053-6.73 5.443-1.105 10.15-1.407 13.81-.937 3.625.466 6.211 1.693 7.454 3.638.045.07.085.139.126.209 3.559 6.201.832 13.742-2.406 21.208l-.199.456-.218.499-.659 1.494c-1.386 3.136-2.694 6.1-3.599 8.965-6.326 20.061-8.825 35.998-7.866 50.161.994 14.69 5.598 26.549 14.071 36.255 7.787 8.921 19.315 16.735 29.567 23.201l5.414 3.435 1.018.649c20.949 13.342 42.601 27.123 75.29 34.792l-.491.433c-32.853-7.708-54.526-21.518-75.492-34.87l-1.223-.778-5.219-3.311c-10.27-6.479-21.828-14.31-29.651-23.272-8.515-9.755-13.136-21.664-14.135-36.401-.963-14.198 1.542-30.166 7.877-50.254.912-2.888 2.223-5.856 3.612-8.998l1.186-2.705.212-.492c3.072-7.181 5.458-14.369 2.094-20.229-1.106-1.93-3.587-3.148-7.128-3.611-3.5-.459-8.046-.177-13.333.896-8.74 1.776-17.451 4.271-25.879 6.687l-.245.07-13.003 3.627c-18.044 4.758-32.404 6.972-43.902 6.757-15.142-.284-27.108-3.696-35.843-10.185zm-17.408 1.256c-6.432-6.725-10.474-15.331-12.367-26.309-2.735-15.858 1.347-32.717 12.122-50.108 7.074-11.419 16.303-23.211 25.227-34.616l.129-.165c6.409-8.191 13.034-16.658 18.904-25.027 21.498-30.649 48.868-76.046 38.518-116.277-1.629-6.329-4.418-13.481-12.663-18.556-6.936-4.27-17.03-7.951-30.005-10.936-16.252-3.742-34.941-6.267-53.015-8.707l-30.817-4.438c-22.797-3.703-41.515-8.069-57.222-13.348-18.626-6.261-33.023-13.93-42.787-22.795-8.858-8.038-11.433-17.6-7.662-28.421 5.003-14.36 23.685-28.667 39.494-39.569l.62.225c-15.75 10.861-34.322 25.104-39.275 39.316-3.735 10.717-1.185 20.188 7.584 28.146 17.881 16.231 50.477 28.012 99.67 36.001 10.046 1.631 20.591 3.056 30.787 4.432 18.134 2.45 36.815 4.973 53.111 8.724 13.046 3.001 23.216 6.708 30.217 11.018 3.923 2.414 6.621 5.28 8.549 8.297l.14.219c2.099 3.361 3.265 6.899 4.118 10.213 4.421 17.173 2.561 36.083-5.681 57.809-6.568 17.31-17.326 36.512-32.892 58.705-5.904 8.415-12.556 16.915-18.991 25.138-8.955 11.443-18.19 23.245-25.258 34.651-10.738 17.326-14.798 34.119-12.078 49.913 2.208 12.816 7.613 22.723 16.144 29.677 8.558 6.977 20.262 10.987 35.043 11.986 11.747.796 26.628-1.071 44.238-5.559 5.052-1.289 10.234-2.776 15.244-4.216 7.619-2.19 15.498-4.454 23.428-6.168 5.427-1.173 10.115-1.503 13.773-1.022 3.637.478 6.245 1.759 7.546 3.795a5.81 5.81 0 0 1 .342.618c3.278 6.849.498 15.008-2.774 23.07l-.214.526-.647 1.574-.221.536c-1.458 3.526-2.831 6.853-3.768 10.079-5.771 19.865-8.111 36.72-7.153 51.53.917 14.136 5.773 25.137 14.835 33.638 8.156 7.65 20.402 14.05 31.238 19.447 13.641 6.793 27.54 13.369 41.311 19.549 14.156 6.355 27.3 11.904 44.624 15.48l-.467.441c-17.432-3.599-30.603-9.166-44.793-15.533a1142.6 1142.6 0 0 1-41.334-19.562c-10.863-5.408-23.141-11.82-31.347-19.519-9.126-8.558-14.004-19.618-14.92-33.808-.961-14.844 1.383-31.727 7.163-51.618.946-3.248 2.321-6.581 3.78-10.11l.547-1.328.219-.531c3.39-8.279 6.42-16.698 3.092-23.645-1.058-2.208-3.49-3.597-7.04-4.137-3.518-.535-8.149-.234-13.66.957-7.846 1.696-15.694 3.95-23.284 6.131l-15.327 4.239c-17.742 4.523-32.796 6.415-44.735 5.608-17.305-1.17-30.546-6.442-39.36-15.658zm25.714 22.355c-29.486-3.819-46.619-19.015-51.027-45.108-2.714-16.062 1.243-33.014 11.754-50.385 7.025-11.606 16.296-23.597 25.262-35.194l.075-.097c6.237-8.069 12.682-16.408 18.406-24.651 21.217-30.547 47.856-75.714 34.439-115.099-1.931-5.668-5.437-12.772-15.419-17.474-7.786-3.668-18.689-6.734-34.316-9.643-14.06-2.617-29.538-4.611-44.504-6.539l-41.404-5.954c-20.791-3.644-38.719-8.56-53.291-14.614-16.521-6.863-28.673-15.186-36.111-24.74-7.849-10.08-7.734-21.696.333-34.522 6.936-11.026 19.57-22.758 37.55-34.873l.609.23C115.154-7.764 99.242 5.394 91.693 19.114c-5.783 10.511-6.662 21.351 1.291 31.564 13.892 17.846 44.676 31.396 89.037 39.174 13.326 2.336 27.572 4.172 41.353 5.947 14.979 1.93 30.465 3.925 44.566 6.55 15.689 2.921 26.661 6.001 34.519 9.704 6.106 2.877 9.812 6.62 12.222 10.391 1.601 2.494 2.628 5.001 3.402 7.275 5.703 16.743 4.788 35.39-2.792 57.007-6.054 17.26-16.42 36.344-31.699 58.342-5.753 8.288-12.231 16.666-18.496 24.767-8.963 11.59-18.227 23.574-25.233 35.152-10.474 17.307-14.412 34.194-11.712 50.193 4.389 25.979 21.431 41.036 50.56 44.81 11.434 1.481 26.811.304 42.197-3.241 6.202-1.43 12.468-3.143 18.526-4.799 7.176-1.963 14.595-3.991 22.066-5.593 6.046-1.297 11.089-1.527 14.975-.666 3.51.776 5.84 2.428 6.75 4.766 3.274 8.413-.428 18.254-3.997 27.77-1.468 3.912-2.851 7.601-3.798 11.219-5.437 20.767-7.462 37.272-6.379 51.945.986 13.35 5.887 22.965 15.411 30.26 8.042 6.16 19.769 10.922 33.154 16.066l20.068 8.033c22.025 8.998 42.841 17.494 69.99 22.885l-.457.44c-27.259-5.413-49.047-14.314-70.124-22.922l-.148-.06-19.93-7.976c-13.415-5.156-25.183-9.927-33.29-16.14-9.61-7.362-14.538-17.039-15.528-30.453-1.088-14.704.944-31.237 6.384-52.027.951-3.636 2.401-7.503 3.804-11.241l.532-1.422.213-.569.491-1.33.194-.533c2.996-8.255 5.362-16.566 2.567-23.747-.938-2.409-3.364-3.97-6.941-4.633-3.556-.66-8.265-.432-13.819.759-7.411 1.587-14.817 3.611-21.975 5.57l-18.593 4.815c-15.547 3.581-31.122 4.778-42.734 3.273zm-51.606-12.677c-6.716-7.655-11.056-17.258-12.909-28.544-2.663-16.228 1.131-33.248 11.278-50.587 6.844-11.699 15.989-23.796 24.833-35.494 6.047-7.996 12.295-16.262 17.841-24.427 32.8-48.276 41.635-84.194 27.842-113.041-3.718-7.784-9.391-12.754-18.374-16.127-11.079-4.161-25.616-6.789-37.044-8.611-11.494-1.834-23.822-3.368-35.75-4.852l-.138-.017c-17.336-2.155-35.262-4.384-51.592-7.622-19.44-3.854-35.934-9.35-49.024-16.335-13.788-7.359-23.575-16.263-29.077-26.472-5.968-11.066-3.659-22.429 3.15-33.243 8.917-14.161 25.546-27.383 41.428-37.776l.6.238C103.995-4.82 87.478 8.312 78.607 22.36c-6.796 10.76-9.108 22.058-3.183 33.046 10.734 19.909 37.607 34.638 77.731 42.592 16.244 3.221 34.113 5.444 51.399 7.595l.256.032 35.791 4.857c11.463 1.828 26.053 4.463 37.221 8.657 7.551 2.834 12.925 6.943 16.649 12.773a32.89 32.89 0 0 1 1.961 3.54c3.967 8.296 6.055 17.404 6.209 27.071.14 8.86-1.34 18.469-4.405 28.559-5.166 17.023-14.875 35.891-29.683 57.683-5.556 8.178-11.806 16.447-17.851 24.443-8.841 11.694-17.977 23.783-24.807 35.453-10.112 17.278-13.891 34.236-11.239 50.403 2.939 17.912 14.012 40.757 49.89 47.961 11.569 2.325 26.741 1.945 42.72-1.074 6.471-1.223 13.248-2.924 19.801-4.57 6.561-1.648 13.35-3.352 19.98-4.619 6.327-1.208 11.51-1.25 15.4-.106 3.364.99 5.546 2.833 6.32 5.324 2.769 8.909-.477 19.042-3.733 28.878l-.199.602c-1.356 4.09-2.756 8.32-3.67 12.325-3.849 16.849-7.197 34.729-5.661 51.335 1.153 12.477 6.485 21.11 16.757 27.173 7.267 4.289 17.372 7.528 27.684 10.528l.72.209.36.104.735.212 2.941.843.734.209.366.105.742.211c10.474 2.988 20.545 6.252 30.285 9.408 20.737 6.719 40.222 13.031 63.885 17.267l-.44.445c-22.1-3.958-41.295-9.955-59.751-15.919l-1.197-.388-2.974-.963-30.344-9.428-.74-.21-3.328-.951-.74-.213-1.11-.321-.739-.214c-10.323-3.003-20.448-6.248-27.779-10.576-10.389-6.135-15.755-14.841-16.916-27.394-1.54-16.646 1.814-34.547 5.665-51.413.919-4.021 2.32-8.256 3.676-12.35l.496-1.499.198-.6c3.066-9.337 5.836-18.865 3.236-27.231-.821-2.642-3.188-4.423-6.764-5.275-3.564-.85-8.34-.778-14.023.307-6.565 1.253-13.339 2.953-19.888 4.597-6.567 1.65-13.361 3.357-19.898 4.591-16.156 3.052-31.523 3.44-43.268 1.081-16.184-3.25-28.754-9.881-37.371-19.704zm-12.827 5.066c-7.007-8.28-11.469-18.297-13.266-29.774-2.56-16.359 1.05-33.427 10.727-50.733 6.545-11.701 15.384-23.816 23.932-35.531l.072-.098c5.753-7.887 11.702-16.041 16.975-24.093 31.571-48.204 37.682-83.26 19.28-110.316-12.456-18.315-52.951-22.84-92.162-27.192l-.596-.066-1.193-.132-2.39-.266-1.197-.134-2.993-.336-1.198-.136-1.182-.135c-15.956-1.827-31.841-3.897-45.373-7.078-36.996-8.697-60.033-24.723-66.61-46.35-3.518-11.566-.287-24.009 9.605-36.983 8.856-11.615 23.028-23.662 42.121-35.81l.589.245C68.73 13.549 50.954 38.567 57.555 60.276c6.542 21.504 29.451 37.447 66.261 46.098 15.159 3.565 33.352 5.736 51.276 7.738l1.18.131 1.179.131 1.178.131 1.176.131 1.773.197 1.183.131c18.725 2.083 37.855 4.306 53.6 8.083 18.596 4.461 30.397 10.668 36.054 18.985l.969 1.471c4.748 7.416 7.7 15.616 8.786 24.395 1.06 8.558.381 17.928-2.013 27.853-4.025 16.668-12.867 35.279-27.024 56.897-5.303 8.095-11.28 16.288-17.06 24.209-8.545 11.708-17.379 23.817-23.906 35.489-9.644 17.245-13.241 34.254-10.691 50.555 2.822 18.022 13.66 41.483 49.172 50.964 12.178 3.252 26.138 3.877 41.489 1.857 7.884-1.036 16.314-2.796 24.463-4.499l15.996-3.177c6.567-1.168 11.173-.844 14.394.148 5.322 1.638 6.87 5.077 7.299 6.542 2.791 9.522-.364 20.206-3.409 30.538l-.036.124c-1.303 4.424-2.648 8.994-3.455 13.314l-1.004 5.305c-2.867 15.024-5.828 30.548-4.053 44.42 1.462 11.417 7.105 18.99 17.728 23.85 7.444 3.405 17.607 5.725 27.904 7.838l.727.148.363.075.734.149 1.1.223.733.148 1.433.288 2.674.54c14.821 2.999 28.687 6.564 42.099 10.013 17.712 4.554 36.027 9.26 56.116 12.505l-.42.446c-20.149-3.252-38.47-7.963-56.195-12.52-13.416-3.449-27.276-7.012-42.065-10.005l-2.644-.533-1.844-.372-.739-.149-.369-.075-.739-.15-.739-.15-.369-.076-.739-.151c-10.187-2.096-20.226-4.407-27.664-7.809-10.78-4.928-16.47-12.588-17.941-24.087-1.392-10.861.109-22.703 2.197-34.519l.162-.909 1.695-9.061 1.007-5.311c.813-4.353 2.164-8.941 3.471-13.382l.024-.082 1.263-4.338.176-.621.146-.524c2.376-8.551 4.098-17.149 1.823-24.919-.41-1.404-1.911-4.691-6.983-6.264-3.088-.957-7.496-1.288-13.796-.168-5.246.933-10.687 2.069-15.945 3.168-8.197 1.711-16.633 3.473-24.588 4.52-15.325 2.016-29.847 1.365-42.005-1.88-15.495-4.139-27.685-11.362-36.237-21.465zm-12.326 4.374c-7.198-8.77-11.779-19.093-13.616-30.677-2.556-16.128.854-33.215 10.129-50.787 6.124-11.604 14.473-23.63 22.548-35.261 5.473-7.881 11.129-16.031 16.123-24.073 29.309-47.198 32.277-82.19 9.132-106.99-11.803-12.644-39.973-17.364-67.842-21.099l-17.924-2.297c-22.583-2.829-45.934-5.756-65.745-10.984-17.238-4.548-30.758-11.29-40.181-20.039-8.98-8.338-14.105-18.345-15.233-29.746-1.211-12.242 3.703-25.101 14.598-38.224C63.513 15.028 78.479 2.786 98.038-9.37l.579.25C57.834 16.23 37.513 41.894 39.808 65.109c2.327 23.488 21.375 40.603 55.082 49.497 19.723 5.205 43.048 8.13 65.607 10.957l17.935 2.299c27.959 3.746 56.282 8.461 68.233 21.265a60.7 60.7 0 0 1 6.825 8.764c3.126 4.914 5.421 10.165 6.851 15.705 2.118 8.201 2.39 17.276.818 26.971-2.64 16.267-10.363 34.545-23.613 55.88-4.999 8.05-10.657 16.2-16.126 24.08-8.083 11.644-16.422 23.659-22.529 35.228-9.246 17.517-12.642 34.547-10.096 50.619 2.807 17.717 13.49 41.409 48.362 53.698 12.404 4.371 26.307 5.966 42.501 4.877 6.808-.457 14.126-1.654 21.201-2.812 5.804-.952 11.753-1.926 17.468-2.511 6.848-.7 11.566-.066 14.805 1.201 4.676 1.829 6.277 4.963 6.806 7.262 1.749 7.606.718 15.703-.971 23.769l-.121.576-.441 2.015-.146.645-1.126 4.823-.027.112c-1.04 4.395-2.115 8.938-2.798 13.292-.578 3.681-1.271 7.432-1.941 11.059-2.264 12.258-4.593 24.89-2.725 36.172 1.682 10.138 7.479 16.674 18.213 20.579 6.731 2.451 15.518 4.003 24.648 5.305l.729.103 2.926.404.733.099.367.05.733.098.733.098 2.897.383 3.571.473c18.209 2.431 35.055 5.236 50.073 8.337l13.181 2.801c12.385 2.671 25.167 5.426 38.831 7.406l-.402.45c-13.714-1.987-26.508-4.746-38.883-7.415l-13.192-2.804c-14.989-3.097-31.812-5.897-49.995-8.326l-.166-.022-3.371-.446-.737-.097-1.107-.147-.739-.098-1.863-.248-.744-.101-.745-.101-.744-.102-.743-.102c-9.782-1.358-19.318-2.953-26.577-5.595-10.915-3.973-16.777-10.596-18.473-20.831-1.544-9.304-.245-19.491 1.519-29.608l.125-.714.132-.74.066-.369.133-.74.741-4.042 1.948-11.092c.693-4.404 1.778-8.99 2.829-13.424 2.521-10.639 5.12-21.639 2.803-31.718-.599-2.608-2.309-5.39-6.463-7.023-3.164-1.245-7.746-1.829-14.355-1.153-5.64.576-11.562 1.545-17.289 2.483-7.165 1.173-14.514 2.377-21.439 2.843-16.38 1.102-30.434-.512-42.971-4.929-14.856-5.234-26.634-13.065-35.016-23.275zm21.343 28.989c-27.279-12.197-44.22-32.187-47.713-56.283-2.33-16.069.892-33.163 9.571-50.806 5.604-11.387 13.28-23.2 20.705-34.626 5.164-7.945 10.476-16.12 15.134-24.183 26.884-46.541 26.188-80.33-2.064-103.311-14.754-12.001-45.111-16.112-71.911-19.728l-11.001-1.459c-24.311-3.198-49.415-6.498-69.837-12.762-31.405-9.632-46.976-27.956-45.055-52.976.986-12.857 7.533-26.121 19.453-39.426C51.351 18.169 67.194 5.697 87.275-6.443l.566.258C46.382 18.879 23.482 45.205 21.582 69.96c-1.911 24.888 13.574 43.093 44.752 52.657 19.306 5.922 42.897 9.196 65.999 12.242l1.458.193 2.185.287 11.039 1.464c15.36 2.073 29.08 4.026 41.46 6.966 14.203 3.372 24.282 7.589 30.806 12.896 5.585 4.543 10.096 9.502 13.537 14.894l.414.661c13.563 21.959 9.604 51.002-11.826 88.102-4.666 8.075-9.98 16.253-15.12 24.162-7.431 11.431-15.112 23.252-20.708 34.625-8.654 17.589-11.864 34.631-9.544 50.65 3.478 24.006 20.351 43.908 47.496 56.045 12.298 5.498 25.53 8.241 40.446 8.39 7.622.077 16.331-.703 24.757-1.459l15.025-1.191c7.021-.403 12.45.561 16.134 2.87 2.788 1.746 4.579 4.218 5.488 7.553 2.469 9.047 1.07 19.005-.893 28.872l-.142.706-1.02 4.921-.021.096-2.16 11.099c-.547 3.366-1.213 6.8-1.857 10.123l-.402 2.076-.133.693c-2.036 10.63-3.813 21.408-1.781 31.001 1.908 9.008 8.289 14.892 19.476 18.002 7.395 2.055 16.913 3.098 26.65 3.918l.766.065 2.304.187.768.062 3.45.271 1.187.094 2.911.23c19.445 1.558 36.149 3.473 51.072 5.853l20.168 3.457c11.193 1.987 22.664 4.023 34.604 5.543l-.38.453c-11.982-1.527-23.466-3.564-34.575-5.537l-.302-.053-19.933-3.414c-14.886-2.375-31.561-4.285-50.977-5.842l-4.095-.323-.385-.03-.773-.061-1.542-.121-.772-.062-3.088-.25-.771-.065c-9.76-.822-19.321-1.867-26.811-3.949-11.4-3.168-17.865-9.147-19.795-18.262-1.888-8.914-.508-18.809 1.312-28.61l.129-.693.131-.692.131-.692.596-3.088.018-.093 1.856-10.111c.601-3.677 1.403-7.502 2.182-11.202l.367-1.747.146-.7c2.263-10.876 4.26-21.99 1.544-31.944-1.023-3.751-3.248-6.45-6.7-8.13-3.473-1.69-8.188-2.355-14.204-2.011-4.841.278-9.987.739-14.961 1.185l-.462.042-.927.083c-8.017.718-16.226 1.416-23.532 1.342-15.091-.153-28.45-2.923-40.851-8.468zm-39.674-13.569c-11.876-12.221-18.767-25.42-20.48-39.227-1.98-15.947 1.118-33.057 9.199-50.853 5.036-11.093 11.938-22.616 18.614-33.759 4.801-8.014 9.762-16.296 14.067-24.461 24.023-45.558 19.517-78.105-13.701-99.515-18.511-11.928-49.295-15.965-81.905-20.23-24.9-3.256-50.643-6.619-70.571-13.857-15.594-5.664-26.463-13.652-32.292-23.746-5.224-9.039-6.468-19.826-3.7-32.061C8.409 48.615 34.082 21.482 76.691-3.569l.556.265C34.788 21.657 9.228 48.681 3.308 74.854c-5.892 26.057 6.143 44.713 35.735 55.463 18.813 6.836 42.95 10.214 66.632 13.321l1.493.196 2.236.292c15.681 2.052 31.893 4.172 46.111 7.227 15.916 3.421 27.735 7.707 36.118 13.111 9.549 6.156 16.828 13.39 21.623 21.506 4.392 7.426 6.825 15.791 7.235 24.86.701 15.482-4.223 32.987-15.047 53.514-4.285 8.129-9.218 16.368-13.991 24.338l-.085.142c-6.674 11.142-13.57 22.654-18.595 33.721-8.062 17.749-11.146 34.811-9.176 50.711 1.707 13.753 8.573 26.902 20.407 39.082 12.919 13.294 28.234 22.177 46.808 27.165 14.731 3.955 33.581 4.331 51.759 4.144 14.298-.147 23.431 2.771 27.219 8.707.739 1.159 1.272 2.433 1.606 3.82 2.928 12.225.524 25.685-1.797 38.703l-1.147 6.557c-.509 3.048-1.142 6.162-1.755 9.182l-.052.256-.509 2.509-.126.629c-1.885 9.451-3.439 19.046-1.208 27.493 2.07 7.848 8.389 12.929 19.284 15.541 8.265 1.981 19.009 2.68 29.921 3.147l.789.034 3.158.127.789.031 1.183.045.787.031 3.518.136c20.936.83 38.232 2.077 52.873 3.815 9.043 1.073 17.904 2.357 26.473 3.6l30.386 4.042-.359.451c-10.408-1.145-20.582-2.62-30.424-4.047l-26.443-3.597c-14.603-1.732-31.866-2.977-52.77-3.806l-3.517-.138-2.775-.107-.794-.031-.794-.032-.795-.032-.396-.016-.794-.033-.397-.017-.793-.035-1.582-.071-.791-.037c-9.838-.473-19.375-1.218-26.946-3.032-10.959-2.629-17.557-7.946-19.633-15.799-2.066-7.82-.914-16.575.752-25.289l.114-.594.589-2.966.128-.631.064-.315.128-.63.064-.315.053-.258 1.752-9.171 1.142-6.534c2.322-13.011 4.718-26.463 1.806-38.633-.992-4.145-3.866-7.244-8.575-9.287s-11.248-3.031-19.602-2.945c-18.247.188-37.189-.184-52.079-4.182-18.707-5.023-34.099-13.954-47.067-27.301z"/></g></svg>