<svg width="37" height="40" viewBox="0 0 37 40" fill="none" xmlns="http://www.w3.org/2000/svg">
<g clip-path="url(#clip0_2894_9565)">
<path d="M14.3513 15.7885V14.1891C13.8162 14.1165 13.2722 14.0703 12.7165 14.0703C6.02824 14.0703 0.587891 19.5116 0.587891 26.1989C0.587891 30.302 2.63796 33.9338 5.76609 36.1292C3.74744 33.9623 2.5496 31.059 2.5496 27.871C2.5496 21.279 7.79555 15.9407 14.3513 15.7875V15.7885Z" fill="#25F4EE"/>
<path d="M14.637 33.4453C17.6208 33.4453 20.0901 31.0378 20.2011 28.0805L20.2266 1.70938L25.0091 1.71134L25.0013 1.67207C24.9011 1.12911 24.8462 0.571428 24.8462 0H18.2571L18.2463 26.4084C18.1353 29.3657 15.7013 31.7388 12.7175 31.7388C11.7897 31.7388 10.9168 31.5071 10.1481 31.1026C11.1545 32.4978 12.7902 33.4453 14.638 33.4453H14.637Z" fill="#25F4EE"/>
<path d="M34.0135 10.7145V9.16715C32.1726 9.16715 30.4583 8.62027 29.0209 7.68262C30.3012 9.15243 32.04 10.2914 34.0135 10.7145Z" fill="#25F4EE"/>
<path d="M29.0209 7.6817C27.6188 6.0705 26.7666 3.96938 26.7666 1.6709H24.9708C25.4352 4.18145 26.9561 6.3356 29.0209 7.6817Z" fill="#FE2C55"/>
<path d="M12.7165 20.6101C9.66198 20.6101 7.14062 23.1452 7.14062 26.1997C7.14062 28.3264 8.38363 30.1742 10.147 31.102C9.49016 30.1919 9.0984 29.0775 9.0984 27.8718C9.0984 24.8173 11.5834 22.3323 14.6379 22.3323C15.2084 22.3323 15.7553 22.4265 16.2727 22.5885V15.861C15.7376 15.7883 15.1936 15.7422 14.6379 15.7422C14.5417 15.7422 14.4474 15.7471 14.3512 15.7491H14.3257L14.308 20.8428C13.7906 20.6808 13.2869 20.6091 12.7165 20.6091V20.6101Z" fill="#FE2C55"/>
<path d="M34.0135 10.6358L33.9831 10.6299L33.9811 15.7178C30.5643 15.7178 27.3901 14.5936 24.8049 12.7379L24.8069 26.1998C24.8069 32.8881 19.4048 38.2951 12.7165 38.2951C10.1323 38.2951 7.73568 37.5135 5.76611 36.1301C7.98212 38.5091 11.1377 40.0005 14.638 40.0005C21.3262 40.0005 26.7666 34.5592 26.7666 27.8719V14.4806C29.3508 16.3353 32.5172 17.4291 35.934 17.4291V10.84C35.2752 10.84 34.6331 10.7683 34.0135 10.6358Z" fill="#FE2C55"/>
<path d="M24.8452 26.1991V12.8079C27.4294 14.6625 30.5958 15.7563 34.0126 15.7563V10.6351C32.0391 10.2129 30.3003 9.15248 29.02 7.68267C26.9552 6.33658 25.4647 4.18243 25.0003 1.67188H20.1756L20.1648 28.0803C20.0538 31.0376 17.6199 33.4107 14.6361 33.4107C12.7882 33.4107 11.1525 32.4976 10.1461 31.1024C8.38275 30.1746 7.17608 28.3268 7.17608 26.2001C7.17608 23.1456 9.6611 20.6606 12.7156 20.6606C13.286 20.6606 13.8329 20.7548 14.3504 20.9168V15.7504C7.79463 15.9036 2.50745 21.2801 2.50745 27.8722C2.50745 31.0602 3.74554 33.9635 5.7642 36.1304C7.73376 37.5138 10.1304 38.3287 12.7146 38.3287C19.4029 38.3287 24.8432 32.8874 24.8432 26.2001L24.8452 26.1991Z" fill="white"/>
</g>
<defs>
<clipPath id="clip0_2894_9565">
<rect width="36.5217" height="40" fill="white"/>
</clipPath>
</defs>
</svg>
