<svg width="200" height="61" viewBox="0 0 200 61" fill="none" xmlns="http://www.w3.org/2000/svg">
<g clip-path="url(#clip0_1172_1490)">
<mask id="mask0_1172_1490" style="mask-type:luminance" maskUnits="userSpaceOnUse" x="27" y="9" width="146" height="37">
<path d="M172.5 9.5H27.5V45.0025H172.5V9.5Z" fill="white"/>
</mask>
<g mask="url(#mask0_1172_1490)">
<path d="M65.6061 22.083H80.2878V24.814H74.5149V40.1661H71.3405V24.814H65.5933V22.083H65.6061ZM79.6606 27.0728H82.3742V29.5996H82.4254C82.515 29.2422 82.6814 28.8977 82.9247 28.5659C83.1678 28.2341 83.4622 27.9151 83.8079 27.647C84.1533 27.3663 84.5375 27.1493 84.9601 26.9707C85.3821 26.8048 85.8177 26.7155 86.2527 26.7155C86.5855 26.7155 86.8287 26.7282 86.9568 26.741C87.0849 26.7537 87.2129 26.7793 87.3534 26.792V29.574C87.1486 29.5357 86.9438 29.5103 86.726 29.4847C86.5088 29.4592 86.304 29.4464 86.0992 29.4464C85.6129 29.4464 85.1519 29.5485 84.7169 29.7399C84.2813 29.9313 83.9103 30.2249 83.5902 30.595C83.2702 30.9778 83.0143 31.4372 82.8223 31.9988C82.6303 32.5602 82.5407 33.1983 82.5407 33.9257V40.1533H79.6478V27.0728H79.6606ZM100.653 40.1661H97.8115V38.3412H97.7601C97.4019 39.0048 96.8766 39.528 96.173 39.9237C95.4689 40.3193 94.7518 40.5234 94.0223 40.5234C92.2941 40.5234 91.0399 40.1023 90.272 39.2472C89.5042 38.3922 89.1199 37.1033 89.1199 35.3805V27.0728H92.0126V35.0998C92.0126 36.2483 92.2304 37.065 92.6784 37.5372C93.1134 38.0094 93.7408 38.2519 94.5346 38.2519C95.149 38.2519 95.6478 38.1625 96.0574 37.9711C96.467 37.7797 96.7999 37.5372 97.043 37.2182C97.2992 36.9119 97.4786 36.5291 97.5937 36.0952C97.7088 35.6613 97.7601 35.1891 97.7601 34.6787V27.0855H100.653V40.1661ZM105.581 35.9676C105.67 36.8098 105.991 37.3968 106.541 37.7414C107.104 38.0732 107.77 38.2519 108.55 38.2519C108.819 38.2519 109.127 38.2264 109.472 38.1881C109.818 38.1498 110.151 38.0604 110.445 37.9456C110.752 37.8308 110.995 37.6521 111.2 37.4224C111.392 37.1927 111.482 36.8991 111.469 36.5291C111.456 36.159 111.315 35.8527 111.06 35.623C110.803 35.3805 110.483 35.2019 110.086 35.0487C109.69 34.9083 109.242 34.7807 108.73 34.6787C108.218 34.5766 107.706 34.4617 107.181 34.3469C106.643 34.232 106.118 34.0789 105.619 33.9129C105.12 33.7471 104.672 33.5173 104.276 33.2238C103.878 32.9431 103.558 32.573 103.328 32.1263C103.085 31.6797 102.969 31.1309 102.969 30.4674C102.969 29.7527 103.149 29.1657 103.495 28.6807C103.84 28.1958 104.288 27.813 104.813 27.5195C105.35 27.2259 105.939 27.0218 106.592 26.8941C107.245 26.7793 107.872 26.7155 108.461 26.7155C109.14 26.7155 109.792 26.792 110.407 26.9324C111.021 27.0728 111.584 27.3025 112.084 27.6343C112.582 27.9533 112.992 28.3745 113.325 28.8849C113.658 29.3954 113.862 30.0207 113.952 30.7481H110.931C110.79 30.059 110.483 29.5868 109.984 29.3571C109.485 29.1147 108.909 28.9998 108.269 28.9998C108.064 28.9998 107.821 29.0126 107.539 29.0508C107.258 29.0891 107.002 29.1529 106.746 29.2422C106.502 29.3316 106.298 29.472 106.118 29.6506C105.952 29.8293 105.863 30.059 105.863 30.3525C105.863 30.7098 105.991 30.9906 106.234 31.2075C106.477 31.4244 106.797 31.6031 107.194 31.7563C107.59 31.8967 108.039 32.0242 108.55 32.1263C109.063 32.2284 109.588 32.3433 110.125 32.4582C110.65 32.573 111.162 32.7261 111.674 32.8921C112.186 33.0579 112.634 33.2877 113.031 33.5812C113.427 33.8747 113.747 34.232 113.991 34.6659C114.234 35.0998 114.362 35.6485 114.362 36.2866C114.362 37.065 114.182 37.7159 113.824 38.2646C113.466 38.8006 113.005 39.2473 112.442 39.5791C111.879 39.9109 111.238 40.1661 110.547 40.3193C109.856 40.4724 109.165 40.5489 108.487 40.5489C107.655 40.5489 106.887 40.4596 106.183 40.2682C105.478 40.0768 104.864 39.796 104.352 39.426C103.84 39.0431 103.43 38.5709 103.136 38.0094C102.842 37.4479 102.688 36.7715 102.662 35.9931H105.581V35.9676ZM115.13 27.0728H117.319V23.1423H120.211V27.0728H122.823V29.2295H120.211V36.2228C120.211 36.5291 120.224 36.7843 120.25 37.014C120.275 37.231 120.34 37.4224 120.429 37.5755C120.519 37.7287 120.659 37.8435 120.851 37.9201C121.044 37.9966 121.287 38.0349 121.62 38.0349C121.824 38.0349 122.029 38.0349 122.234 38.0222C122.439 38.0094 122.644 37.9839 122.849 37.9329V40.1661C122.528 40.2044 122.208 40.2299 121.914 40.2682C121.607 40.3065 121.299 40.3193 120.979 40.3193C120.211 40.3193 119.597 40.2427 119.136 40.1023C118.676 39.9619 118.304 39.745 118.048 39.4642C117.779 39.1835 117.613 38.8389 117.511 38.4178C117.421 37.9966 117.357 37.5117 117.344 36.9757V29.255H115.156V27.0728H115.13ZM124.871 27.0728H127.61V28.8466H127.661C128.071 28.0809 128.634 27.5449 129.363 27.2132C130.093 26.8814 130.874 26.7155 131.731 26.7155C132.768 26.7155 133.664 26.8941 134.432 27.2642C135.201 27.6216 135.84 28.1193 136.353 28.7573C136.864 29.3954 137.236 30.1355 137.492 30.9778C137.747 31.8201 137.875 32.7261 137.875 33.6833C137.875 34.5638 137.76 35.4188 137.53 36.2356C137.299 37.065 136.954 37.7925 136.493 38.4306C136.032 39.0686 135.444 39.5663 134.727 39.9491C134.01 40.332 133.178 40.5234 132.205 40.5234C131.783 40.5234 131.361 40.4851 130.938 40.4086C130.515 40.332 130.106 40.2044 129.722 40.0385C129.338 39.8726 128.967 39.6556 128.647 39.3876C128.314 39.1197 128.045 38.8134 127.815 38.4688H127.763V45.0027H124.871V27.0728ZM134.983 33.6322C134.983 33.0452 134.906 32.4709 134.753 31.9094C134.599 31.3479 134.368 30.863 134.061 30.429C133.754 29.9952 133.37 29.6506 132.922 29.3954C132.461 29.1401 131.936 28.9998 131.348 28.9998C130.132 28.9998 129.21 29.4209 128.595 30.2632C127.981 31.1054 127.674 32.2284 127.674 33.6322C127.674 34.2958 127.751 34.9083 127.917 35.4699C128.084 36.0314 128.314 36.5163 128.647 36.9247C128.967 37.3331 129.351 37.6521 129.799 37.8818C130.247 38.1243 130.772 38.2391 131.361 38.2391C132.026 38.2391 132.576 38.0987 133.037 37.8308C133.498 37.5627 133.869 37.2054 134.164 36.7843C134.458 36.3504 134.675 35.8655 134.803 35.3167C134.919 34.768 134.983 34.2065 134.983 33.6322ZM140.09 22.083H142.983V24.814H140.09V22.083ZM140.09 27.0728H142.983V40.1661H140.09V27.0728ZM145.568 22.083H148.462V40.1661H145.568V22.083ZM157.332 40.5234C156.282 40.5234 155.348 40.3447 154.528 40.0002C153.709 39.6556 153.018 39.1707 152.442 38.5709C151.879 37.9584 151.444 37.231 151.149 36.3887C150.855 35.5464 150.701 34.6148 150.701 33.6067C150.701 32.6113 150.855 31.6925 151.149 30.8502C151.444 30.008 151.879 29.2805 152.442 28.668C153.005 28.0554 153.709 27.5832 154.528 27.2387C155.348 26.8941 156.282 26.7155 157.332 26.7155C158.381 26.7155 159.316 26.8941 160.135 27.2387C160.954 27.5832 161.645 28.0682 162.221 28.668C162.784 29.2805 163.22 30.008 163.515 30.8502C163.808 31.6925 163.962 32.6113 163.962 33.6067C163.962 34.6148 163.808 35.5464 163.515 36.3887C163.22 37.231 162.784 37.9584 162.221 38.5709C161.658 39.1835 160.954 39.6556 160.135 40.0002C159.316 40.3447 158.381 40.5234 157.332 40.5234ZM157.332 38.2391C157.972 38.2391 158.535 38.0987 159.009 37.8308C159.482 37.5627 159.866 37.2054 160.173 36.7715C160.481 36.3377 160.698 35.84 160.852 35.2912C160.993 34.7425 161.069 34.181 161.069 33.6067C161.069 33.0452 160.993 32.4964 160.852 31.9349C160.711 31.3734 160.481 30.8885 160.173 30.4546C159.866 30.0207 159.482 29.6761 159.009 29.4082C158.535 29.1401 157.972 28.9998 157.332 28.9998C156.692 28.9998 156.129 29.1401 155.655 29.4082C155.181 29.6761 154.798 30.0334 154.49 30.4546C154.183 30.8885 153.965 31.3734 153.812 31.9349C153.671 32.4964 153.594 33.0452 153.594 33.6067C153.594 34.181 153.671 34.7425 153.812 35.2912C153.952 35.84 154.183 36.3377 154.49 36.7715C154.798 37.2054 155.181 37.5627 155.655 37.8308C156.129 38.1115 156.692 38.2391 157.332 38.2391ZM164.807 27.0728H166.996V23.1423H169.889V27.0728H172.5V29.2295H169.889V36.2228C169.889 36.5291 169.902 36.7843 169.927 37.014C169.953 37.231 170.017 37.4224 170.107 37.5755C170.196 37.7287 170.337 37.8435 170.529 37.9201C170.721 37.9966 170.964 38.0349 171.297 38.0349C171.501 38.0349 171.706 38.0349 171.911 38.0222C172.116 38.0094 172.321 37.9839 172.525 37.9329V40.1661C172.206 40.2044 171.886 40.2299 171.591 40.2682C171.284 40.3065 170.977 40.3193 170.657 40.3193C169.889 40.3193 169.274 40.2427 168.814 40.1023C168.353 39.9619 167.981 39.745 167.726 39.4642C167.457 39.1835 167.29 38.8389 167.188 38.4178C167.098 37.9966 167.035 37.5117 167.022 36.9757V29.255H164.833V27.0728H164.807Z" fill="white"/>
<path d="M44.8698 34.653L52.4347 32.7004L55.6091 42.4247L44.8698 34.653ZM62.2268 22.0828H48.9658L44.8698 9.5L40.7738 22.0828L27.5 22.0701L38.2393 29.8419L34.1433 42.4247L44.8698 34.653L51.5003 29.8546L62.2268 22.0828Z" fill="white"/>
</g>
</g>
<defs>
<clipPath id="clip0_1172_1490">
<rect width="145" height="36" fill="white" transform="translate(27.5 9.5)"/>
</clipPath>
</defs>
</svg>
